<?xml version="1.0" standalone="no"?>
<!DOCTYPE svg PUBLIC "-//W3C//DTD SVG 20010904//EN"
 "http://www.w3.org/TR/2001/REC-SVG-20010904/DTD/svg10.dtd">
<svg version="1.0" xmlns="http://www.w3.org/2000/svg"
 width="934.000000pt" height="534.000000pt" viewBox="0 0 934.000000 534.000000"
 preserveAspectRatio="xMidYMid meet">

<g transform="translate(0.000000,534.000000) scale(0.100000,-0.100000)"
fill="#000000" stroke="none">
<path d="M8367 5070 c-25 -23 -49 -50 -52 -60 -9 -27 -29 -25 -45 5 -7 14 -22
25 -33 25 -18 0 -18 -2 -5 -22 8 -13 21 -33 29 -45 15 -24 15 -23 -29 -90 -13
-21 -13 -23 5 -23 11 0 26 11 33 25 7 14 17 25 21 25 5 0 16 -11 25 -25 9 -14
25 -25 36 -25 17 0 17 3 -7 37 -14 21 -25 44 -25 52 0 8 22 47 50 88 27 40 48
73 46 73 -2 0 -24 -18 -49 -40z"/>
<path d="M7880 4950 c0 -83 2 -90 20 -90 16 0 19 8 22 58 l3 57 39 -57 c24
-36 46 -58 57 -58 17 0 19 9 19 90 0 73 -3 90 -15 90 -12 0 -15 -13 -15 -55 0
-30 -3 -55 -7 -55 -5 0 -24 25 -43 55 -25 40 -41 55 -57 55 -22 0 -23 -3 -23
-90z"/>
<path d="M8080 4950 l0 -90 56 0 c40 0 55 4 52 13 -3 6 -19 13 -36 15 -26 3
-32 8 -32 28 0 20 5 24 31 24 38 0 35 24 -4 28 -41 5 -37 40 5 44 17 2 33 9
36 16 3 8 -12 12 -52 12 l-56 0 0 -90z"/>
<path d="M8400 5025 c0 -9 9 -15 25 -15 24 0 25 -2 25 -75 0 -68 2 -75 20 -75
18 0 20 7 20 74 0 69 2 75 22 78 12 2 23 9 26 16 3 9 -15 12 -67 12 -56 0 -71
-3 -71 -15z"/>
<path d="M8560 4950 l0 -90 240 0 240 0 0 90 0 90 -240 0 -240 0 0 -90z m161
61 c13 -11 21 -23 17 -27 -5 -4 -16 0 -26 9 -22 20 -63 22 -80 5 -7 -7 -12
-28 -12 -48 0 -42 14 -60 49 -60 24 0 61 25 61 42 0 4 -16 8 -36 8 -21 0 -33
4 -29 10 3 6 22 10 41 10 42 0 53 -20 30 -55 -32 -49 -105 -45 -132 6 -40 78
50 155 117 100z m134 9 c-3 -5 -19 -10 -36 -10 -24 0 -29 -4 -29 -25 0 -21 5
-25 30 -25 17 0 30 -4 30 -10 0 -5 -13 -10 -30 -10 -25 0 -30 -4 -30 -25 0
-21 5 -25 29 -25 17 0 33 -5 36 -11 5 -7 -8 -9 -37 -7 l-43 3 -3 64 c-4 85 -1
91 48 91 25 0 39 -4 35 -10z m92 -58 l28 -47 5 55 c7 79 25 63 25 -22 0 -39
-4 -73 -10 -75 -5 -1 -26 22 -45 52 l-35 55 -5 -52 c-3 -28 -11 -53 -17 -56
-10 -3 -13 16 -13 71 0 40 3 77 7 80 10 10 29 -10 60 -61z"/>
<path d="M1185 4573 c-9 -54 -23 -128 -29 -165 l-13 -68 42 0 42 0 9 53 10 52
27 -52 27 -53 51 0 51 0 -22 33 c-11 17 -28 47 -37 65 l-17 32 59 60 59 60
-49 0 c-47 0 -53 -3 -93 -47 l-43 -48 5 40 c2 22 8 61 12 88 l7 47 -40 0 -41
0 -17 -97z"/>
<path d="M2035 4648 c-3 -13 -14 -75 -25 -138 -11 -63 -23 -128 -26 -143 -6
-28 -5 -28 37 -25 l43 3 14 75 c15 86 25 102 61 98 24 -3 26 -7 26 -53 0 -27
-3 -67 -7 -88 l-7 -38 42 3 41 3 12 65 c19 97 17 137 -6 160 -24 24 -77 26
-108 4 -30 -21 -33 -17 -22 31 15 63 14 65 -30 65 -33 0 -40 -4 -45 -22z"/>
<path d="M610 4636 c0 -8 -3 -21 -6 -30 -5 -13 2 -16 35 -16 26 0 41 -5 41
-12 0 -7 -9 -62 -20 -122 -11 -60 -20 -111 -20 -113 0 -2 18 -3 40 -3 45 0 41
-9 68 145 l17 100 41 3 c40 3 53 16 54 55 0 4 -56 7 -125 7 -101 0 -125 -3
-125 -14z"/>
<path d="M1857 4620 c-4 -18 -13 -30 -22 -30 -8 0 -15 -6 -15 -12 0 -7 -3 -23
-6 -35 -5 -17 -2 -23 11 -23 13 0 16 -6 11 -25 -4 -14 -9 -45 -12 -68 -6 -39
-3 -46 21 -65 36 -29 95 -30 95 -3 0 11 3 26 6 35 4 12 0 16 -15 16 -23 0 -26
20 -15 79 5 24 12 31 30 31 13 0 24 6 24 13 0 6 3 22 6 35 5 18 2 22 -15 22
-17 0 -21 6 -21 30 0 28 -2 30 -39 30 -35 0 -39 -3 -44 -30z"/>
<path d="M2682 4516 c-13 -73 -26 -143 -29 -155 -5 -21 -3 -22 38 -19 l43 3
16 85 16 85 44 -87 44 -88 41 0 42 0 22 133 c13 72 25 142 28 155 5 20 2 22
-36 22 -34 0 -41 -4 -45 -22 -3 -13 -11 -52 -19 -88 l-13 -65 -42 88 -41 87
-43 0 -43 0 -23 -134z"/>
<path d="M3607 4620 c-4 -18 -13 -30 -22 -30 -8 0 -15 -6 -15 -12 0 -7 -3 -23
-6 -35 -5 -17 -2 -23 11 -23 13 0 16 -6 11 -25 -4 -14 -9 -45 -12 -68 -6 -39
-3 -46 21 -65 36 -29 95 -30 95 -3 0 11 3 26 6 35 4 12 0 16 -15 16 -23 0 -26
20 -15 79 5 24 12 31 30 31 13 0 24 6 24 13 0 6 3 22 6 35 5 18 2 22 -15 22
-17 0 -21 6 -21 30 0 28 -2 30 -39 30 -35 0 -39 -3 -44 -30z"/>
<path d="M914 4571 c-64 -39 -87 -159 -39 -206 28 -29 79 -33 113 -9 20 14 22
14 22 0 0 -12 10 -16 39 -16 l38 0 17 93 c9 50 19 107 22 125 6 32 6 32 -35
32 -30 0 -41 -4 -41 -15 0 -8 -4 -15 -9 -15 -5 0 -14 7 -21 15 -17 21 -69 19
-106 -4z m110 -73 c27 -44 -40 -110 -79 -78 -21 17 -13 69 13 88 22 16 52 12
66 -10z"/>
<path d="M1512 4570 c-45 -28 -72 -76 -72 -130 1 -48 12 -70 47 -88 49 -27
139 -2 171 46 14 21 13 22 -29 21 -24 0 -53 -4 -64 -8 -27 -11 -45 -3 -45 20
0 16 10 19 83 21 l82 3 3 38 c7 81 -95 126 -176 77z m83 -53 c25 -19 10 -37
-31 -37 -38 0 -47 22 -16 39 22 14 25 13 47 -2z"/>
<path d="M2370 4572 c-41 -22 -80 -90 -80 -140 0 -50 46 -92 100 -92 23 0 51
5 63 11 28 15 67 50 67 61 0 11 -81 10 -99 -1 -19 -12 -51 4 -51 24 0 12 17
15 84 15 79 0 84 1 88 23 18 92 -79 148 -172 99z m78 -54 c24 -24 13 -38 -28
-38 -45 0 -51 11 -18 34 27 19 31 19 46 4z"/>
<path d="M3072 4570 c-45 -28 -72 -76 -72 -130 1 -48 12 -70 47 -88 49 -27
139 -2 171 46 14 21 13 22 -29 21 -24 0 -53 -4 -64 -8 -27 -11 -45 -3 -45 20
0 16 10 19 83 21 l82 3 3 38 c7 81 -95 126 -176 77z m83 -53 c25 -19 10 -37
-31 -37 -38 0 -47 22 -16 39 22 14 25 13 47 -2z"/>
<path d="M3290 4583 c0 -3 14 -31 31 -60 l30 -55 -44 -51 c-65 -77 -65 -77
-15 -77 37 0 46 4 63 30 11 16 22 30 25 30 3 0 14 -13 23 -30 16 -26 24 -30
63 -30 l44 0 -31 61 c-35 70 -39 53 39 148 l34 41 -43 0 c-36 0 -47 -5 -69
-32 l-27 -32 -19 32 c-16 28 -24 32 -61 32 -24 0 -43 -3 -43 -7z"/>
<path d="M2517 4202 c-22 -25 -21 -49 2 -62 43 -22 100 30 71 65 -17 21 -54
19 -73 -3z"/>
<path d="M5315 4178 c-2 -7 -13 -69 -25 -138 -12 -69 -24 -137 -27 -152 -5
-27 -4 -28 36 -28 45 0 40 -8 61 102 12 62 27 81 62 76 20 -3 23 -9 23 -48 0
-25 -4 -64 -8 -87 l-7 -43 40 0 c33 0 40 4 44 23 18 85 26 132 26 156 0 57
-78 92 -126 56 -37 -28 -39 -21 -17 73 5 20 2 22 -36 22 -25 0 -43 -5 -46 -12z"/>
<path d="M695 4158 c-91 -50 -132 -168 -86 -244 37 -61 149 -71 216 -20 44 34
61 61 68 109 l6 37 -80 0 c-43 0 -79 -3 -79 -7 0 -5 -3 -18 -6 -30 -6 -21 -3
-23 35 -23 42 0 51 -9 29 -28 -44 -34 -113 -19 -123 28 -9 42 17 94 55 110 29
12 37 12 62 -3 16 -9 48 -17 70 -17 39 0 40 1 34 28 -12 49 -49 72 -119 72
-34 0 -71 -6 -82 -12z"/>
<path d="M2327 4140 c-4 -18 -13 -30 -22 -30 -8 0 -15 -6 -15 -12 0 -7 -3 -23
-6 -35 -5 -17 -2 -23 11 -23 13 0 16 -6 11 -25 -4 -14 -9 -45 -12 -68 -6 -39
-3 -46 21 -65 36 -29 95 -30 95 -3 0 11 3 26 6 35 4 12 0 16 -15 16 -23 0 -26
20 -15 79 5 24 12 31 30 31 13 0 24 6 24 13 0 6 3 22 6 35 5 18 2 22 -15 22
-17 0 -21 6 -21 30 0 28 -2 30 -39 30 -35 0 -39 -3 -44 -30z"/>
<path d="M3347 4053 c-75 -137 -97 -180 -97 -188 0 -3 18 -5 40 -5 33 0 42 4
52 25 10 22 17 25 69 25 54 0 59 -2 65 -25 5 -22 12 -25 49 -25 l42 0 -22 118
c-12 64 -25 134 -29 155 -7 37 -7 37 -56 37 l-49 0 -64 -117z m107 -25 l7 -48
-36 0 -35 0 26 51 c14 28 27 49 28 47 2 -1 7 -24 10 -50z"/>
<path d="M991 4088 c-51 -35 -72 -69 -74 -119 -2 -59 22 -96 68 -105 54 -10
101 4 136 39 l33 32 -47 3 c-25 2 -54 -1 -64 -6 -24 -13 -43 -4 -43 19 0 17 8
19 79 19 88 0 99 9 86 69 -9 42 -38 63 -92 68 -39 4 -55 0 -82 -19z m73 -44
c9 -3 16 -15 16 -25 0 -15 -7 -19 -35 -19 -39 0 -48 21 -17 39 21 13 17 12 36
5z"/>
<path d="M1225 4088 c-3 -13 -13 -69 -23 -125 l-18 -103 41 0 42 0 13 76 c14
82 28 104 65 104 33 0 38 -24 22 -108 l-14 -72 42 0 42 0 13 73 c7 39 13 88
13 107 -2 61 -63 88 -125 56 -24 -13 -28 -13 -28 0 0 10 -12 14 -40 14 -33 0
-41 -4 -45 -22z"/>
<path d="M1571 4088 c-51 -35 -72 -69 -74 -119 -2 -59 22 -96 68 -105 54 -10
101 4 136 39 l33 32 -47 3 c-25 2 -54 -1 -64 -6 -24 -13 -43 -4 -43 19 0 17 8
19 79 19 88 0 99 9 86 69 -9 42 -38 63 -92 68 -39 4 -55 0 -82 -19z m73 -44
c9 -3 16 -15 16 -25 0 -15 -7 -19 -35 -19 -39 0 -48 21 -17 39 21 13 17 12 36
5z"/>
<path d="M1786 4006 c-9 -57 -20 -114 -23 -126 -5 -20 -2 -21 38 -18 l43 3 12
64 c12 68 30 91 71 91 22 0 24 3 38 73 4 23 -10 22 -53 -5 l-35 -22 5 22 c6
20 2 22 -36 22 l-42 0 -18 -104z"/>
<path d="M2034 4091 c-64 -39 -87 -159 -39 -206 28 -29 79 -33 113 -9 20 14
22 14 22 0 0 -12 10 -16 39 -16 l38 0 17 93 c9 50 19 107 22 125 6 32 6 32
-35 32 -30 0 -41 -4 -41 -15 0 -8 -4 -15 -9 -15 -5 0 -14 7 -21 15 -17 21 -69
19 -106 -4z m110 -73 c27 -44 -40 -110 -79 -78 -21 17 -13 69 13 88 22 16 52
12 66 -10z"/>
<path d="M2476 4006 c-9 -57 -20 -114 -23 -126 -5 -20 -2 -21 38 -18 l43 3 22
123 21 122 -41 0 -42 0 -18 -104z"/>
<path d="M2670 4088 c-53 -36 -73 -71 -73 -124 0 -40 4 -51 31 -76 84 -74 224
-1 226 119 1 38 -4 49 -32 74 -42 37 -103 40 -152 7z m94 -70 c13 -21 -2 -66
-26 -82 -42 -26 -73 34 -43 80 18 28 51 29 69 2z"/>
<path d="M2896 4006 c-9 -57 -20 -114 -23 -126 -5 -20 -2 -21 38 -18 l43 3 14
75 c15 86 25 102 61 98 24 -3 26 -7 26 -53 0 -27 -3 -67 -7 -88 l-7 -38 42 3
41 3 12 65 c19 96 17 133 -6 158 -24 26 -76 29 -106 7 -25 -19 -38 -19 -30 0
4 12 -3 15 -37 15 l-43 0 -18 -104z"/>
<path d="M3616 3948 c-15 -90 -30 -173 -33 -185 -5 -21 -2 -23 35 -23 44 0 46
2 57 75 13 76 14 79 36 59 29 -26 97 -13 131 25 32 35 52 103 43 140 -15 62
-84 92 -131 56 -25 -19 -38 -19 -30 0 4 12 -3 15 -37 15 l-43 0 -28 -162z
m172 80 c28 -28 -3 -98 -42 -98 -25 0 -47 30 -40 54 15 48 56 70 82 44z"/>
<path d="M3945 4088 c-3 -13 -16 -88 -30 -168 -14 -80 -27 -153 -29 -162 -3
-15 3 -18 39 -18 l42 0 12 75 c12 74 13 75 34 60 74 -52 177 32 177 145 0 75
-78 117 -138 74 -20 -14 -22 -14 -22 0 0 12 -10 16 -40 16 -33 0 -40 -4 -45
-22z m139 -54 c37 -14 8 -104 -34 -104 -43 0 -56 68 -18 94 25 18 30 19 52 10z"/>
<path d="M4241 4058 c-17 -86 -31 -171 -31 -185 0 -8 13 -13 39 -13 l39 0 12
66 c14 74 29 94 69 94 26 0 29 4 35 41 4 23 4 44 2 47 -3 2 -21 -5 -41 -16
-34 -21 -35 -21 -35 -2 0 17 -7 20 -39 20 l-40 0 -10 -52z"/>
<path d="M4491 4093 c-48 -25 -73 -63 -78 -120 -4 -42 -1 -54 19 -77 32 -37
106 -46 158 -19 76 39 105 142 57 199 -31 35 -106 44 -156 17z m89 -73 c8 -15
8 -27 -2 -47 -28 -56 -78 -57 -78 -2 0 58 57 93 80 49z"/>
<path d="M4770 4097 c-51 -26 -90 -115 -76 -172 15 -58 86 -85 132 -50 25 19
35 19 27 -1 -5 -13 2 -15 38 -12 l43 3 22 123 21 122 -43 0 c-33 0 -44 -4 -44
-16 0 -14 -2 -14 -22 0 -27 19 -64 20 -98 3z m84 -63 c23 -9 21 -67 -4 -89
-13 -12 -27 -15 -45 -11 -21 5 -25 12 -25 41 0 24 7 38 22 49 25 18 30 19 52
10z"/>
<path d="M5075 4091 c-69 -42 -97 -113 -71 -176 28 -67 130 -74 192 -14 19 18
34 37 34 41 0 12 -78 10 -99 -4 -44 -27 -70 31 -35 80 15 22 54 31 54 12 0 -5
22 -10 49 -10 l50 0 -11 30 c-19 56 -104 78 -163 41z"/>
<path d="M5569 3916 c-9 -20 -9 -29 1 -41 28 -34 94 -5 88 39 -2 16 -11 22
-40 24 -32 3 -40 -1 -49 -22z"/>
<path d="M5710 3926 c-6 -8 -10 -25 -8 -38 2 -18 10 -24 35 -26 39 -4 68 30
52 60 -12 22 -61 24 -79 4z"/>
<path d="M1039 3607 c-50 -34 -64 -69 -64 -164 0 -44 -3 -79 -7 -77 -11 7 -15
-20 -6 -44 4 -13 5 -28 2 -33 -3 -6 -1 -15 4 -22 22 -27 30 -83 16 -109 -19
-37 -105 -82 -204 -109 -150 -40 -156 -66 -42 -178 112 -112 248 -170 393
-171 43 0 148 16 156 24 2 1 -13 52 -32 111 -19 60 -35 125 -35 145 0 19 -8
51 -18 69 -18 34 -18 34 11 89 24 43 27 56 16 62 -7 5 -14 27 -14 49 -1 23 -9
48 -19 60 -18 19 -17 20 15 40 l33 20 -39 35 c-21 20 -44 36 -49 37 -6 1 -1 4
12 7 30 9 31 24 2 39 -22 11 -22 11 -2 22 51 27 80 2 67 -59 -4 -17 -2 -30 3
-30 13 0 32 -55 32 -90 0 -38 27 -47 42 -14 10 22 9 28 -3 38 -12 8 -15 26
-11 76 4 61 2 68 -30 114 -26 40 -43 53 -83 67 -69 24 -106 23 -146 -4z m87
-285 c-9 -8 -26 10 -26 26 1 15 2 15 15 -2 8 -11 13 -21 11 -24z m-139 -9 c-3
-10 -5 -4 -5 12 0 17 2 24 5 18 2 -7 2 -21 0 -30z m110 -198 c61 -23 60 -22
37 -40 -18 -14 -18 -14 -1 -15 11 0 32 -9 47 -20 27 -19 28 -24 23 -73 -4 -42
-1 -62 16 -95 11 -23 21 -47 21 -54 -1 -18 -29 19 -47 62 -8 19 -29 55 -46 79
-17 25 -31 52 -32 60 -1 9 -23 39 -49 66 -26 28 -52 59 -58 69 -10 19 -9 19
15 -1 14 -11 47 -28 74 -38z"/>
<path d="M2165 3450 c3 -5 8 -10 11 -10 2 0 4 5 4 10 0 6 -5 10 -11 10 -5 0
-7 -4 -4 -10z"/>
<path d="M1930 3411 c0 -39 20 -61 20 -23 1 16 1 16 14 0 19 -25 21 -23 21 20
0 33 -3 37 -27 40 -27 3 -28 1 -28 -37z m42 14 c0 -5 -5 -11 -11 -13 -6 -2
-11 4 -11 13 0 9 5 15 11 13 6 -2 11 -8 11 -13z"/>
<path d="M2080 3410 c0 -22 5 -40 10 -40 6 0 10 11 10 25 0 16 6 25 15 25 9 0
15 -9 15 -25 0 -14 5 -25 11 -25 6 0 9 12 7 28 -2 19 -9 28 -25 30 -13 2 -23
8 -23 13 0 5 -4 9 -10 9 -5 0 -10 -18 -10 -40z"/>
<path d="M2203 3410 c0 -25 2 -35 4 -22 2 12 2 32 0 45 -2 12 -4 2 -4 -23z"/>
<path d="M2262 3410 c-1 -36 1 -41 8 -22 12 27 30 29 37 2 9 -34 23 -22 23 20
0 22 -4 40 -10 40 -5 0 -10 -7 -10 -15 0 -21 -38 -19 -43 3 -3 9 -5 -3 -5 -28z"/>
<path d="M4620 3429 c0 -5 5 -7 10 -4 6 3 10 8 10 11 0 2 -4 4 -10 4 -5 0 -10
-5 -10 -11z"/>
<path d="M4838 3423 c-2 -10 -1 -31 3 -48 6 -28 7 -28 9 -5 1 14 3 35 6 48 5
26 -12 30 -18 5z"/>
<path d="M6600 3429 c0 -5 5 -7 10 -4 6 3 10 8 10 11 0 2 -4 4 -10 4 -5 0 -10
-5 -10 -11z"/>
<path d="M7388 3423 c-2 -10 -1 -31 3 -48 6 -28 7 -28 9 -5 1 14 3 35 6 48 5
26 -12 30 -18 5z"/>
<path d="M7800 3429 c0 -5 5 -7 10 -4 6 3 10 8 10 11 0 2 -4 4 -10 4 -5 0 -10
-5 -10 -11z"/>
<path d="M2006 3414 c-9 -23 9 -41 39 -41 21 0 25 4 25 28 0 25 -4 29 -29 29
-17 0 -31 -6 -35 -16z m44 -9 c0 -8 -7 -15 -15 -15 -16 0 -20 12 -8 23 11 12
23 8 23 -8z"/>
<path d="M2160 3400 c0 -16 5 -30 10 -30 6 0 10 14 10 30 0 17 -4 30 -10 30
-5 0 -10 -13 -10 -30z"/>
<path d="M2344 3415 c-10 -25 4 -45 31 -45 21 0 25 5 25 30 0 25 -4 30 -25 30
-14 0 -28 -7 -31 -15z m44 -13 c2 -7 -3 -12 -12 -12 -9 0 -16 7 -16 16 0 17
22 14 28 -4z"/>
<path d="M2420 3415 c0 -8 7 -15 15 -15 8 0 15 -4 15 -10 0 -5 -8 -7 -17 -3
-14 5 -16 3 -6 -7 13 -14 43 -7 43 11 0 6 -10 13 -22 17 -21 5 -21 6 -2 13 18
7 17 8 -3 8 -14 1 -23 -5 -23 -14z"/>
<path d="M2484 3415 c-11 -27 4 -44 35 -43 27 1 31 5 31 30 0 25 -4 28 -30 28
-18 0 -33 -6 -36 -15z m44 -13 c2 -7 -3 -12 -12 -12 -9 0 -16 7 -16 16 0 17
22 14 28 -4z"/>
<path d="M2560 3401 c0 -17 5 -31 10 -31 6 0 10 11 10 25 0 16 6 25 15 25 9 0
15 -9 15 -25 0 -14 5 -25 11 -25 6 0 9 12 7 28 -2 22 -8 28 -35 30 -31 3 -33
1 -33 -27z"/>
<path d="M4340 3390 c0 -37 2 -40 28 -40 23 1 24 2 10 11 -11 6 -18 22 -18 39
0 17 -4 30 -10 30 -5 0 -10 -18 -10 -40z"/>
<path d="M4551 3390 c0 -33 2 -41 9 -30 9 13 11 13 19 0 6 -8 13 -11 17 -7 4
3 2 13 -4 20 -9 10 -8 17 0 25 9 9 9 12 1 12 -7 0 -15 -6 -19 -12 -6 -9 -10
-5 -15 12 -5 19 -7 15 -8 -20z"/>
<path d="M5128 3418 c-7 -19 6 -61 19 -65 7 -3 10 8 8 29 -2 18 -4 36 -4 41
-1 12 -19 8 -23 -5z"/>
<path d="M5368 3418 c-7 -19 6 -61 19 -65 7 -3 10 8 8 29 -2 18 -4 36 -4 41
-1 12 -19 8 -23 -5z"/>
<path d="M5530 3420 c0 -5 -9 -10 -19 -10 -23 0 -35 -28 -21 -45 6 -7 22 -12
35 -12 22 0 25 4 25 38 0 22 -4 39 -10 39 -5 0 -10 -4 -10 -10z m0 -35 c0 -8
-7 -15 -15 -15 -16 0 -20 12 -8 23 11 12 23 8 23 -8z"/>
<path d="M5798 3418 c-7 -19 6 -61 19 -65 7 -3 10 8 8 29 -2 18 -4 36 -4 41
-1 12 -19 8 -23 -5z"/>
<path d="M6068 3418 c-7 -19 6 -61 19 -65 7 -3 10 8 8 29 -2 18 -4 36 -4 41
-1 12 -19 8 -23 -5z"/>
<path d="M6210 3390 c0 -22 5 -40 10 -40 6 0 10 12 10 26 0 32 22 27 31 -7 6
-21 7 -21 8 9 1 26 -3 32 -19 32 -11 0 -20 5 -20 10 0 6 -4 10 -10 10 -5 0
-10 -18 -10 -40z"/>
<path d="M6360 3390 c0 -22 5 -40 10 -40 6 0 10 18 10 40 0 22 -4 40 -10 40
-5 0 -10 -18 -10 -40z"/>
<path d="M6638 3418 c-7 -20 6 -61 21 -66 10 -3 10 0 -1 17 -11 18 -11 23 0
30 10 6 10 10 -1 20 -11 9 -16 9 -19 -1z"/>
<path d="M6680 3390 c0 -22 5 -40 10 -40 6 0 10 12 10 26 0 32 22 27 31 -7 6
-21 7 -21 8 9 1 26 -3 32 -19 32 -11 0 -20 5 -20 10 0 6 -4 10 -10 10 -5 0
-10 -18 -10 -40z"/>
<path d="M7756 3421 c-10 -16 6 -71 20 -71 12 0 12 4 2 20 -10 15 -10 22 -2
28 9 5 8 10 -2 19 -7 7 -15 9 -18 4z"/>
<path d="M7980 3419 c0 -6 7 -9 15 -5 8 3 15 1 15 -3 0 -5 -6 -11 -12 -14 -7
-2 -10 -7 -7 -11 11 -12 39 6 39 25 0 14 -7 19 -25 19 -14 0 -25 -5 -25 -11z"/>
<path d="M8078 3423 c6 -2 12 -20 12 -39 0 -19 5 -34 10 -34 6 0 10 15 10 34
0 19 6 37 13 39 6 3 -4 5 -23 5 -19 0 -29 -2 -22 -5z"/>
<path d="M8140 3390 c0 -22 5 -40 10 -40 6 0 10 12 10 26 0 32 22 27 31 -7 6
-21 7 -21 8 9 1 26 -3 32 -19 32 -11 0 -20 5 -20 10 0 6 -4 10 -10 10 -5 0
-10 -18 -10 -40z"/>
<path d="M4400 3385 c0 -31 26 -43 47 -22 21 21 9 47 -22 47 -20 0 -25 -5 -25
-25z m40 0 c0 -8 -7 -15 -15 -15 -16 0 -20 12 -8 23 11 12 23 8 23 -8z"/>
<path d="M4474 3396 c-10 -26 4 -48 28 -44 17 2 23 10 23 28 0 18 -6 26 -23
28 -13 2 -25 -3 -28 -12z m38 -11 c0 -5 -5 -11 -11 -13 -6 -2 -11 4 -11 13 0
9 5 15 11 13 6 -2 11 -8 11 -13z"/>
<path d="M4620 3380 c0 -16 5 -30 10 -30 6 0 10 14 10 30 0 17 -4 30 -10 30
-5 0 -10 -13 -10 -30z"/>
<path d="M4650 3380 c0 -16 5 -30 10 -30 6 0 10 12 10 26 0 32 22 27 31 -7 6
-21 7 -21 8 9 1 29 -2 32 -29 32 -27 0 -30 -3 -30 -30z"/>
<path d="M4734 3395 c-10 -24 3 -45 28 -46 19 -1 17 -3 -7 -9 -25 -6 -27 -8
-12 -14 31 -14 47 1 47 44 0 36 -2 40 -25 40 -14 0 -28 -7 -31 -15z m44 -13
c2 -7 -3 -12 -12 -12 -9 0 -16 7 -16 16 0 17 22 14 28 -4z"/>
<path d="M4876 3394 c-10 -26 19 -52 42 -38 9 6 17 20 17 30 0 26 -50 32 -59
8z m44 -8 c0 -8 -4 -17 -9 -21 -12 -7 -24 12 -16 25 9 15 25 12 25 -4z"/>
<path d="M4950 3380 c0 -16 5 -30 10 -30 6 0 10 8 10 18 0 10 5 23 12 30 9 9
7 12 -10 12 -18 0 -22 -6 -22 -30z"/>
<path d="M5024 3395 c-11 -27 4 -44 35 -43 27 1 31 5 31 30 0 25 -4 28 -30 28
-18 0 -33 -6 -36 -15z m44 -13 c2 -7 -3 -12 -12 -12 -9 0 -16 7 -16 16 0 17
22 14 28 -4z"/>
<path d="M5170 3380 c0 -16 5 -30 10 -30 6 0 10 8 10 18 0 10 5 23 12 30 9 9
7 12 -10 12 -18 0 -22 -6 -22 -30z"/>
<path d="M5220 3393 c0 -29 13 -41 43 -41 23 0 27 5 27 29 0 33 -17 40 -22 9
-2 -12 -7 -21 -13 -21 -5 0 -11 9 -13 21 -4 24 -22 27 -22 3z"/>
<path d="M5300 3400 c0 -6 7 -13 15 -16 8 -4 15 -10 15 -15 0 -4 -7 -5 -17 -2
-11 4 -14 3 -9 -5 4 -7 13 -12 21 -12 23 0 29 22 11 36 -16 12 -16 13 1 17 12
3 9 5 -9 6 -16 0 -28 -4 -28 -9z"/>
<path d="M5414 3396 c-9 -24 3 -46 25 -46 29 0 35 18 9 23 l-23 4 23 2 c29 1
24 25 -6 29 -13 2 -25 -3 -28 -12z"/>
<path d="M5590 3365 c0 -25 5 -45 10 -45 6 0 10 6 10 14 0 7 9 16 20 19 14 3
20 14 20 31 0 22 -4 26 -30 26 -29 0 -30 -2 -30 -45z m48 17 c2 -7 -3 -12 -12
-12 -9 0 -16 7 -16 16 0 17 22 14 28 -4z"/>
<path d="M5666 3394 c-9 -23 9 -41 39 -41 21 0 25 4 25 28 0 25 -4 29 -29 29
-17 0 -31 -6 -35 -16z m44 -9 c0 -8 -7 -15 -15 -15 -16 0 -20 12 -8 23 11 12
23 8 23 -8z"/>
<path d="M5751 3378 c1 -24 3 -27 6 -10 2 12 9 22 14 22 5 0 9 5 9 10 0 6 -7
10 -15 10 -11 0 -15 -10 -14 -32z"/>
<path d="M5840 3381 c0 -17 5 -31 10 -31 6 0 10 11 10 25 0 16 6 25 15 25 9 0
15 -9 15 -25 0 -14 5 -25 11 -25 6 0 9 12 7 28 -2 22 -8 28 -35 30 -31 3 -33
1 -33 -27z"/>
<path d="M5924 3396 c-9 -24 3 -46 25 -46 29 0 35 18 9 23 l-23 4 23 2 c29 1
24 25 -6 29 -13 2 -25 -3 -28 -12z"/>
<path d="M5990 3380 c0 -16 5 -30 10 -30 6 0 10 8 10 18 0 10 5 23 12 30 9 9
7 12 -10 12 -18 0 -22 -6 -22 -30z"/>
<path d="M6114 3395 c-10 -25 4 -47 28 -43 17 2 24 11 26 31 3 23 0 27 -23 27
-14 0 -28 -7 -31 -15z m44 -13 c2 -7 -3 -12 -12 -12 -9 0 -16 7 -16 16 0 17
22 14 28 -4z"/>
<path d="M6294 3396 c-9 -24 3 -46 25 -46 29 0 35 18 9 23 l-23 4 23 2 c29 1
24 25 -6 29 -13 2 -25 -3 -28 -12z"/>
<path d="M6401 3363 c1 -27 3 -40 6 -31 2 9 14 18 26 20 16 2 23 11 25 31 3
24 0 27 -27 27 -30 0 -31 -1 -30 -47z m44 28 c7 -12 -12 -24 -25 -16 -11 7 -4
25 10 25 5 0 11 -4 15 -9z"/>
<path d="M6500 3394 c0 -10 5 -26 10 -34 8 -13 11 -12 24 5 14 19 15 19 16 2
0 -10 5 -17 12 -15 14 5 30 58 17 58 -5 0 -9 -8 -9 -17 -1 -17 -1 -17 -11 0
-5 9 -14 17 -19 17 -6 0 -10 -8 -10 -17 -1 -16 -2 -16 -15 1 -15 20 -15 20
-15 0z"/>
<path d="M6600 3380 c0 -16 5 -30 10 -30 6 0 10 14 10 30 0 17 -4 30 -10 30
-5 0 -10 -13 -10 -30z"/>
<path d="M6784 3395 c-4 -8 -4 -22 0 -30 6 -17 42 -20 51 -5 3 6 -3 10 -14 10
-12 0 -21 7 -21 16 0 11 6 14 21 9 15 -5 19 -4 15 4 -10 16 -46 13 -52 -4z"/>
<path d="M6854 3395 c-10 -25 4 -47 28 -43 17 2 24 11 26 31 3 23 0 27 -23 27
-14 0 -28 -7 -31 -15z m44 -13 c2 -7 -3 -12 -12 -12 -9 0 -16 7 -16 16 0 17
22 14 28 -4z"/>
<path d="M6930 3380 c0 -16 5 -30 10 -30 6 0 10 11 10 25 0 14 5 25 10 25 6 0
10 -11 10 -25 0 -14 5 -25 10 -25 6 0 10 12 10 26 0 31 23 28 28 -4 4 -24 22
-30 22 -8 0 37 -12 46 -61 46 -48 0 -49 -1 -49 -30z"/>
<path d="M7050 3365 c0 -25 5 -45 10 -45 6 0 10 9 10 19 0 14 5 18 19 14 13
-3 21 2 26 16 9 29 -1 41 -36 41 -28 0 -29 -2 -29 -45z m50 20 c0 -8 -7 -15
-15 -15 -8 0 -15 7 -15 15 0 8 7 15 15 15 8 0 15 -7 15 -15z"/>
<path d="M7132 3383 c2 -22 9 -29 31 -31 24 -3 27 0 27 27 0 28 -3 31 -31 31
-27 0 -30 -3 -27 -27z m38 2 c0 -8 -7 -15 -15 -15 -16 0 -20 12 -8 23 11 12
23 8 23 -8z"/>
<path d="M7210 3380 c0 -16 5 -30 10 -30 6 0 10 11 10 25 0 14 5 25 10 25 6 0
10 -11 10 -25 0 -14 5 -25 10 -25 6 0 10 14 10 30 0 27 -3 30 -30 30 -27 0
-30 -3 -30 -30z"/>
<path d="M7294 3382 c10 -19 11 -33 5 -45 -7 -11 -6 -17 1 -17 11 0 51 81 44
89 -2 3 -10 -4 -17 -14 -13 -16 -14 -16 -20 -1 -4 9 -11 16 -17 16 -6 0 -5
-11 4 -28z"/>
<path d="M7426 3394 c-10 -26 19 -52 42 -38 9 6 17 20 17 30 0 26 -50 32 -59
8z m44 -8 c0 -8 -4 -17 -9 -21 -12 -7 -24 12 -16 25 9 15 25 12 25 -4z"/>
<path d="M7500 3380 c0 -16 5 -30 10 -30 6 0 10 8 10 18 0 10 5 23 12 30 9 9
7 12 -10 12 -18 0 -22 -6 -22 -30z"/>
<path d="M7550 3380 c0 -16 5 -30 10 -30 6 0 10 11 10 25 0 14 5 25 10 25 6 0
10 -11 10 -25 0 -14 5 -25 10 -25 6 0 10 12 10 26 0 31 23 28 28 -4 4 -24 22
-30 22 -8 0 37 -12 46 -61 46 -48 0 -49 -1 -49 -30z"/>
<path d="M7674 3395 c-11 -27 4 -44 35 -43 27 1 31 5 31 30 0 25 -4 28 -30 28
-18 0 -33 -6 -36 -15z m44 -13 c2 -7 -3 -12 -12 -12 -9 0 -16 7 -16 16 0 17
22 14 28 -4z"/>
<path d="M7800 3380 c0 -16 5 -30 10 -30 6 0 10 14 10 30 0 17 -4 30 -10 30
-5 0 -10 -13 -10 -30z"/>
<path d="M7834 3395 c-10 -25 4 -47 28 -43 17 2 24 11 26 31 3 23 0 27 -23 27
-14 0 -28 -7 -31 -15z m44 -13 c2 -7 -3 -12 -12 -12 -9 0 -16 7 -16 16 0 17
22 14 28 -4z"/>
<path d="M7911 3378 c1 -29 2 -30 8 -9 9 34 31 39 31 7 0 -14 5 -26 11 -26 6
0 9 12 7 28 -2 21 -9 28 -30 30 -26 3 -28 1 -27 -30z"/>
<path d="M8220 3385 c0 -29 25 -44 43 -25 10 10 8 12 -5 7 -10 -3 -20 -2 -23
3 -4 6 6 10 20 10 35 0 28 24 -8 28 -23 3 -27 0 -27 -23z m37 9 c-3 -3 -12 -4
-19 -1 -8 3 -5 6 6 6 11 1 17 -2 13 -5z"/>
<path d="M7990 3360 c0 -5 5 -10 10 -10 6 0 10 5 10 10 0 6 -4 10 -10 10 -5 0
-10 -4 -10 -10z"/>
<path d="M5130 3299 c0 -5 5 -7 10 -4 6 3 10 8 10 11 0 2 -4 4 -10 4 -5 0 -10
-5 -10 -11z"/>
<path d="M5680 3300 c0 -5 5 -10 10 -10 6 0 10 5 10 10 0 6 -4 10 -10 10 -5 0
-10 -4 -10 -10z"/>
<path d="M6155 3300 c3 -5 8 -10 11 -10 2 0 4 5 4 10 0 6 -5 10 -11 10 -5 0
-7 -4 -4 -10z"/>
<path d="M7140 3299 c0 -5 5 -7 10 -4 6 3 10 8 10 11 0 2 -4 4 -10 4 -5 0 -10
-5 -10 -11z"/>
<path d="M4340 3260 c0 -22 5 -40 10 -40 6 0 10 12 10 28 l1 27 17 -27 c23
-39 32 -35 31 15 -1 23 -4 32 -6 20 -5 -28 -20 -30 -28 -3 -12 37 -35 23 -35
-20z"/>
<path d="M4576 3291 c-10 -16 6 -71 20 -71 12 0 12 4 2 20 -10 15 -10 22 -2
28 9 5 8 10 -2 19 -7 7 -15 9 -18 4z"/>
<path d="M4650 3285 c-26 -31 13 -81 47 -59 27 17 27 34 1 34 -18 0 -20 -2 -8
-10 12 -8 11 -10 -7 -10 -16 0 -23 6 -23 20 0 15 7 20 26 20 14 0 23 4 19 10
-9 15 -41 12 -55 -5z"/>
<path d="M5078 3288 c-7 -19 6 -61 19 -65 7 -3 10 8 8 29 -2 18 -4 36 -4 41
-1 12 -19 8 -23 -5z"/>
<path d="M5338 3288 c-7 -19 6 -61 19 -65 7 -3 10 8 8 29 -2 18 -4 36 -4 41
-1 12 -19 8 -23 -5z"/>
<path d="M5876 3291 c-10 -16 6 -71 20 -71 12 0 12 4 2 20 -10 15 -10 22 -2
28 9 5 8 10 -2 19 -7 7 -15 9 -18 4z"/>
<path d="M6120 3291 c0 -5 -10 -11 -22 -13 -17 -2 -23 -10 -23 -28 0 -21 5
-25 33 -27 31 -1 32 0 32 38 0 21 -4 39 -10 39 -5 0 -10 -4 -10 -9z m-2 -39
c2 -7 -3 -12 -12 -12 -9 0 -16 7 -16 16 0 17 22 14 28 -4z"/>
<path d="M6370 3259 c0 -38 1 -40 28 -37 21 2 28 9 30 31 3 22 -1 27 -17 27
-12 0 -21 5 -21 10 0 6 -4 10 -10 10 -5 0 -10 -18 -10 -41z m48 -7 c2 -7 -3
-12 -12 -12 -9 0 -16 7 -16 16 0 17 22 14 28 -4z"/>
<path d="M6548 3288 c-7 -19 6 -61 19 -65 7 -3 10 8 8 29 -2 18 -4 36 -4 41
-1 12 -19 8 -23 -5z"/>
<path d="M6690 3260 c0 -22 5 -40 10 -40 6 0 10 12 10 26 0 32 22 27 31 -7 6
-21 7 -21 8 9 1 26 -3 32 -19 32 -11 0 -20 5 -20 10 0 6 -4 10 -10 10 -5 0
-10 -18 -10 -40z"/>
<path d="M6840 3260 c0 -22 5 -40 10 -40 6 0 10 18 10 40 0 22 -4 40 -10 40
-5 0 -10 -18 -10 -40z"/>
<path d="M7210 3290 c0 -5 -9 -10 -21 -10 -16 0 -20 -5 -17 -27 2 -22 9 -29
31 -31 26 -3 27 -1 27 37 0 23 -4 41 -10 41 -5 0 -10 -4 -10 -10z m0 -35 c0
-8 -7 -15 -15 -15 -16 0 -20 12 -8 23 11 12 23 8 23 -8z"/>
<path d="M7598 3288 c-7 -20 6 -61 21 -66 10 -3 10 0 -1 17 -11 18 -11 23 0
30 10 6 10 10 -1 20 -11 9 -16 9 -19 -1z"/>
<path d="M7746 3291 c-10 -16 6 -71 20 -71 12 0 12 4 2 20 -10 15 -10 22 -2
28 9 5 8 10 -2 19 -7 7 -15 9 -18 4z"/>
<path d="M7791 3260 c1 -34 3 -39 8 -21 9 34 31 39 31 7 0 -14 5 -26 11 -26
20 0 5 55 -16 59 -11 2 -23 8 -27 15 -4 6 -7 -9 -7 -34z"/>
<path d="M7960 3262 c0 -36 2 -39 30 -40 20 0 31 5 35 19 8 25 -1 39 -26 39
-10 0 -19 5 -19 10 0 6 -4 10 -10 10 -5 0 -10 -17 -10 -38z m50 -7 c0 -8 -7
-15 -15 -15 -8 0 -15 7 -15 15 0 8 7 15 15 15 8 0 15 -7 15 -15z"/>
<path d="M8178 3288 c-7 -19 6 -61 19 -65 7 -3 10 8 8 29 -2 18 -4 36 -4 41
-1 12 -19 8 -23 -5z"/>
<path d="M1940 3265 c-26 -31 13 -81 47 -59 27 17 27 34 1 34 -18 0 -20 -2 -8
-10 12 -8 11 -10 -7 -10 -16 0 -23 6 -23 20 0 15 7 20 26 20 14 0 23 4 19 10
-9 15 -41 12 -55 -5z"/>
<path d="M2370 3240 c0 -22 5 -40 10 -40 6 0 10 18 10 40 0 22 -4 40 -10 40
-5 0 -10 -18 -10 -40z"/>
<path d="M2431 3238 c1 -37 2 -39 9 -18 l8 25 7 -22 c4 -13 11 -23 15 -23 4 0
12 10 18 23 l11 22 0 -22 c2 -41 21 -24 21 17 0 47 -21 54 -36 13 l-11 -28
-13 28 c-19 39 -30 33 -29 -15z"/>
<path d="M4434 3266 c-9 -24 3 -46 25 -46 29 0 35 18 9 23 l-23 4 23 2 c29 1
24 25 -6 29 -13 2 -25 -3 -28 -12z"/>
<path d="M4509 3267 c6 -6 7 -16 1 -27 -7 -14 -4 -17 20 -17 22 0 27 3 20 12
-6 7 -8 19 -5 26 4 10 -3 14 -21 16 -18 1 -23 -2 -15 -10z"/>
<path d="M4734 3266 c-9 -24 3 -46 25 -46 29 0 35 18 9 23 l-23 4 23 2 c29 1
24 25 -6 29 -13 2 -25 -3 -28 -12z"/>
<path d="M4800 3250 c0 -16 5 -30 10 -30 6 0 10 12 10 26 0 32 22 27 31 -7 6
-21 7 -21 8 9 1 29 -2 32 -29 32 -27 0 -30 -3 -30 -30z"/>
<path d="M4880 3255 c0 -29 25 -44 43 -25 10 10 8 12 -5 7 -10 -3 -20 -2 -23
3 -4 6 6 10 20 10 35 0 28 24 -8 28 -23 3 -27 0 -27 -23z m37 9 c-3 -3 -12 -4
-19 -1 -8 3 -5 6 6 6 11 1 17 -2 13 -5z"/>
<path d="M4950 3250 c0 -16 5 -30 10 -30 6 0 10 8 10 18 0 10 5 23 12 30 9 9
7 12 -10 12 -18 0 -22 -6 -22 -30z"/>
<path d="M5004 3265 c-10 -25 4 -45 31 -45 21 0 25 5 25 30 0 25 -4 30 -25 30
-14 0 -28 -7 -31 -15z m44 -13 c2 -7 -3 -12 -12 -12 -9 0 -16 7 -16 16 0 17
22 14 28 -4z"/>
<path d="M5132 3250 c0 -19 2 -27 5 -17 2 9 2 25 0 35 -3 9 -5 1 -5 -18z"/>
<path d="M5164 3266 c-10 -26 4 -48 28 -44 17 2 23 10 23 28 0 18 -6 26 -23
28 -13 2 -25 -3 -28 -12z m38 -11 c0 -5 -5 -11 -11 -13 -6 -2 -11 4 -11 13 0
9 5 15 11 13 6 -2 11 -8 11 -13z"/>
<path d="M5230 3251 c0 -17 5 -31 10 -31 6 0 10 11 10 25 0 16 6 25 15 25 9 0
15 -9 15 -25 0 -14 5 -25 11 -25 6 0 9 12 7 28 -2 22 -8 28 -35 30 -31 3 -33
1 -33 -27z"/>
<path d="M5384 3266 c-9 -24 3 -46 25 -46 29 0 35 18 9 23 l-23 4 23 2 c29 1
24 25 -6 29 -13 2 -25 -3 -28 -12z"/>
<path d="M5456 3264 c-9 -23 9 -41 39 -41 21 0 25 4 25 28 0 25 -4 29 -29 29
-17 0 -31 -6 -35 -16z m44 -9 c0 -8 -7 -15 -15 -15 -16 0 -20 12 -8 23 11 12
23 8 23 -8z"/>
<path d="M5530 3250 c0 -16 5 -30 10 -30 6 0 10 11 10 25 0 16 6 25 15 25 9 0
15 -9 15 -25 0 -14 5 -25 10 -25 6 0 10 11 10 25 0 14 5 25 10 25 6 0 10 -11
10 -25 0 -14 5 -25 10 -25 6 0 10 14 10 30 0 30 -1 30 -55 30 -54 0 -55 0 -55
-30z"/>
<path d="M5680 3250 c0 -16 5 -30 10 -30 6 0 10 14 10 30 0 17 -4 30 -10 30
-5 0 -10 -13 -10 -30z"/>
<path d="M5720 3269 c0 -7 8 -18 18 -25 16 -13 16 -14 0 -8 -11 4 -18 1 -18
-6 0 -15 42 -9 47 7 2 6 -6 15 -19 19 -22 7 -22 7 -3 15 19 7 19 8 -2 8 -13 1
-23 -4 -23 -10z"/>
<path d="M5810 3269 c0 -7 8 -18 18 -25 16 -13 16 -14 0 -8 -11 4 -18 1 -18
-6 0 -15 42 -9 47 7 2 6 -6 15 -19 19 -22 7 -22 7 -3 15 19 7 19 8 -2 8 -13 1
-23 -4 -23 -10z"/>
<path d="M5922 3253 c2 -22 9 -29 31 -31 24 -3 27 0 27 27 0 28 -3 31 -31 31
-27 0 -30 -3 -27 -27z m38 2 c0 -8 -7 -15 -15 -15 -16 0 -20 12 -8 23 11 12
23 8 23 -8z"/>
<path d="M6001 3248 c1 -29 2 -30 8 -9 9 34 31 39 31 7 0 -14 5 -26 11 -26 6
0 9 12 7 28 -2 21 -9 28 -30 30 -26 3 -28 1 -27 -30z"/>
<path d="M6150 3250 c0 -16 5 -30 10 -30 6 0 10 14 10 30 0 17 -4 30 -10 30
-5 0 -10 -13 -10 -30z"/>
<path d="M6190 3250 c0 -16 5 -30 10 -30 6 0 10 11 10 25 0 14 5 25 10 25 6 0
10 -11 10 -25 0 -14 5 -25 10 -25 6 0 10 14 10 30 0 27 -3 30 -30 30 -27 0
-30 -3 -30 -30z"/>
<path d="M6266 3264 c-8 -21 13 -47 31 -39 9 3 13 0 10 -7 -2 -7 -13 -11 -23
-10 -14 3 -16 1 -8 -8 7 -7 20 -10 30 -8 14 2 20 14 22 46 3 41 2 42 -26 42
-18 0 -32 -6 -36 -16z m44 -9 c0 -8 -7 -15 -15 -15 -16 0 -20 12 -8 23 11 12
23 8 23 -8z"/>
<path d="M6455 3260 c4 -14 7 -36 7 -49 0 -12 4 -19 8 -15 15 15 41 84 31 84
-5 0 -12 -7 -15 -17 -6 -14 -8 -14 -22 3 -15 18 -15 18 -9 -6z"/>
<path d="M6594 3265 c-10 -25 4 -47 28 -43 17 2 24 11 26 31 3 23 0 27 -23 27
-14 0 -28 -7 -31 -15z m44 -13 c2 -7 -3 -12 -12 -12 -9 0 -16 7 -16 16 0 17
22 14 28 -4z"/>
<path d="M6770 3255 c0 -29 25 -44 43 -25 10 10 8 12 -5 7 -10 -3 -20 -2 -23
3 -4 6 6 10 20 10 35 0 28 24 -8 28 -23 3 -27 0 -27 -23z m37 9 c-3 -3 -12 -4
-19 -1 -8 3 -5 6 6 6 11 1 17 -2 13 -5z"/>
<path d="M6881 3233 c1 -27 3 -40 6 -31 2 9 14 18 26 20 16 2 23 11 25 31 3
24 0 27 -27 27 -30 0 -31 -1 -30 -47z m44 28 c7 -12 -12 -24 -25 -16 -11 7 -4
25 10 25 5 0 11 -4 15 -9z"/>
<path d="M6980 3254 c0 -17 6 -28 20 -31 11 -3 17 -9 15 -14 -3 -4 -13 -5 -23
-2 -13 5 -14 3 -6 -6 7 -7 20 -11 30 -9 14 2 20 14 22 46 3 41 2 42 -27 42
-27 0 -31 -4 -31 -26z m40 1 c0 -8 -7 -15 -15 -15 -16 0 -20 12 -8 23 11 12
23 8 23 -8z"/>
<path d="M7063 3255 c2 -25 7 -30 30 -32 24 -2 27 2 27 28 0 16 -4 29 -10 29
-5 0 -10 -9 -10 -20 0 -27 -27 -25 -33 3 -4 15 -5 12 -4 -8z"/>
<path d="M7142 3250 c0 -19 2 -27 5 -17 2 9 2 25 0 35 -3 9 -5 1 -5 -18z"/>
<path d="M7250 3255 c0 -29 25 -44 43 -25 10 10 8 12 -5 7 -10 -3 -20 -2 -23
3 -4 6 6 10 20 10 35 0 28 24 -8 28 -23 3 -27 0 -27 -23z m37 9 c-3 -3 -12 -4
-19 -1 -8 3 -5 6 6 6 11 1 17 -2 13 -5z"/>
<path d="M7352 3250 c5 -17 7 -37 4 -45 -3 -8 -2 -15 3 -15 8 0 41 72 41 88 0
4 -7 -2 -15 -12 -13 -17 -15 -17 -21 -3 -11 30 -23 18 -12 -13z"/>
<path d="M7420 3255 c0 -31 26 -43 47 -22 21 21 9 47 -22 47 -20 0 -25 -5 -25
-25z m40 0 c0 -8 -7 -15 -15 -15 -16 0 -20 12 -8 23 11 12 23 8 23 -8z"/>
<path d="M7492 3253 c2 -22 9 -29 31 -31 25 -3 27 -1 26 30 -1 23 -3 26 -6 11
-5 -28 -33 -30 -33 -3 0 11 -5 20 -11 20 -6 0 -9 -12 -7 -27z"/>
<path d="M7644 3266 c-10 -26 4 -48 28 -44 17 2 23 10 23 28 0 18 -6 26 -23
28 -13 2 -25 -3 -28 -12z m38 -11 c0 -5 -5 -11 -11 -13 -6 -2 -11 4 -11 13 0
9 5 15 11 13 6 -2 11 -8 11 -13z"/>
<path d="M7866 3264 c-12 -31 33 -60 50 -32 5 8 2 9 -9 5 -9 -3 -19 -2 -22 3
-4 6 5 10 19 10 18 0 24 4 20 15 -8 20 -50 19 -58 -1z m41 0 c-3 -3 -12 -4
-19 -1 -8 3 -5 6 6 6 11 1 17 -2 13 -5z"/>
<path d="M8044 3266 c-9 -24 3 -46 25 -46 29 0 35 18 9 23 l-23 4 23 2 c29 1
24 25 -6 29 -13 2 -25 -3 -28 -12z"/>
<path d="M8110 3270 c0 -6 7 -13 15 -16 8 -4 15 -10 15 -15 0 -4 -7 -5 -17 -2
-11 4 -14 3 -9 -5 4 -7 13 -12 21 -12 23 0 29 22 11 36 -16 12 -16 13 1 17 12
3 9 5 -9 6 -16 0 -28 -4 -28 -9z"/>
<path d="M2020 3235 c0 -29 25 -44 43 -25 10 10 8 12 -5 7 -10 -3 -20 -2 -23
3 -4 6 6 10 20 10 35 0 28 24 -8 28 -23 3 -27 0 -27 -23z m37 9 c-3 -3 -12 -4
-19 -1 -8 3 -5 6 6 6 11 1 17 -2 13 -5z"/>
<path d="M2090 3230 c0 -16 5 -30 10 -30 6 0 10 12 10 26 0 32 22 27 31 -7 6
-21 7 -21 8 9 1 29 -2 32 -29 32 -27 0 -30 -3 -30 -30z"/>
<path d="M2170 3235 c0 -29 25 -44 43 -25 10 10 8 12 -5 7 -10 -3 -20 -2 -23
3 -4 6 6 10 20 10 35 0 28 24 -8 28 -23 3 -27 0 -27 -23z m37 9 c-3 -3 -12 -4
-19 -1 -8 3 -5 6 6 6 11 1 17 -2 13 -5z"/>
<path d="M2240 3230 c0 -16 5 -30 10 -30 6 0 10 8 10 18 0 10 5 23 12 30 9 9
7 12 -10 12 -18 0 -22 -6 -22 -30z"/>
<path d="M2292 3233 c2 -22 9 -29 31 -31 24 -3 27 0 27 27 0 28 -3 31 -31 31
-27 0 -30 -3 -27 -27z m38 2 c0 -8 -7 -15 -15 -15 -16 0 -20 12 -8 23 11 12
23 8 23 -8z"/>
<path d="M2534 3245 c-11 -27 4 -44 35 -43 27 1 31 5 31 30 0 25 -4 28 -30 28
-18 0 -33 -6 -36 -15z m44 -13 c2 -7 -3 -12 -12 -12 -9 0 -16 7 -16 16 0 17
22 14 28 -4z"/>
<path d="M2610 3230 c0 -16 5 -30 10 -30 6 0 10 12 10 26 0 32 22 27 31 -7 6
-21 7 -21 8 9 1 29 -2 32 -29 32 -27 0 -30 -3 -30 -30z"/>
<path d="M2694 3245 c-10 -25 4 -45 31 -45 21 0 25 5 25 30 0 25 -4 30 -25 30
-14 0 -28 -7 -31 -15z m44 -13 c2 -7 -3 -12 -12 -12 -9 0 -16 7 -16 16 0 17
22 14 28 -4z"/>
<path d="M2770 3234 c0 -17 6 -28 20 -31 11 -3 17 -9 15 -14 -3 -4 -13 -5 -23
-2 -13 5 -14 3 -6 -6 7 -7 20 -11 30 -9 14 2 20 14 22 46 3 41 2 42 -27 42
-27 0 -31 -4 -31 -26z m40 1 c0 -8 -7 -15 -15 -15 -16 0 -20 12 -8 23 11 12
23 8 23 -8z"/>
<path d="M2850 3235 c0 -29 25 -44 43 -25 10 10 8 12 -5 7 -10 -3 -20 -2 -23
3 -4 6 6 10 20 10 35 0 28 24 -8 28 -23 3 -27 0 -27 -23z m37 9 c-3 -3 -12 -4
-19 -1 -8 3 -5 6 6 6 11 1 17 -2 13 -5z"/>
<path d="M2920 3230 c0 -16 5 -30 10 -30 6 0 10 8 10 18 0 10 5 23 12 30 9 9
7 12 -10 12 -18 0 -22 -6 -22 -30z"/>
<path d="M4640 3160 c0 -5 5 -10 10 -10 6 0 10 5 10 10 0 6 -4 10 -10 10 -5 0
-10 -4 -10 -10z"/>
<path d="M4856 3153 c-3 -10 -2 -31 3 -48 9 -29 9 -29 11 -5 1 14 3 35 6 48 5
26 -12 30 -20 5z"/>
<path d="M5565 3160 c3 -5 8 -10 11 -10 2 0 4 5 4 10 0 6 -5 10 -11 10 -5 0
-7 -4 -4 -10z"/>
<path d="M6040 3159 c0 -5 5 -7 10 -4 6 3 10 8 10 11 0 2 -4 4 -10 4 -5 0 -10
-5 -10 -11z"/>
<path d="M6390 3160 c0 -5 5 -10 10 -10 6 0 10 5 10 10 0 6 -4 10 -10 10 -5 0
-10 -4 -10 -10z"/>
<path d="M4480 3120 c0 -22 5 -40 10 -40 6 0 10 18 10 40 0 22 -4 40 -10 40
-5 0 -10 -18 -10 -40z"/>
<path d="M4598 3148 c-7 -20 6 -61 21 -66 10 -3 10 0 -1 17 -11 18 -11 23 0
30 10 6 10 10 -1 20 -11 9 -16 9 -19 -1z"/>
<path d="M5340 3122 c0 -36 2 -39 30 -40 20 0 31 5 35 19 8 25 -1 39 -26 39
-10 0 -19 5 -19 10 0 6 -4 10 -10 10 -5 0 -10 -17 -10 -38z m50 -7 c0 -8 -7
-15 -15 -15 -8 0 -15 7 -15 15 0 8 7 15 15 15 8 0 15 -7 15 -15z"/>
<path d="M6000 3120 c0 -22 5 -40 10 -40 6 0 10 18 10 40 0 22 -4 40 -10 40
-5 0 -10 -18 -10 -40z"/>
<path d="M6228 3148 c-7 -20 6 -61 21 -66 10 -3 10 0 -1 17 -11 18 -11 23 0
30 10 6 10 10 -1 20 -11 9 -16 9 -19 -1z"/>
<path d="M6718 3148 c-7 -20 6 -61 21 -66 10 -3 10 0 -1 17 -11 18 -11 23 0
30 10 6 10 10 -1 20 -11 9 -16 9 -19 -1z"/>
<path d="M7180 3151 c0 -5 -10 -11 -22 -13 -17 -2 -23 -10 -23 -28 0 -20 6
-26 28 -28 26 -3 27 -1 27 37 0 23 -2 41 -5 41 -3 0 -5 -4 -5 -9z m-2 -39 c2
-7 -3 -12 -12 -12 -9 0 -16 7 -16 16 0 17 22 14 28 -4z"/>
<path d="M7513 3120 c0 -25 2 -35 4 -22 2 12 2 32 0 45 -2 12 -4 2 -4 -23z"/>
<path d="M4345 3130 c-3 -6 1 -13 9 -16 9 -3 16 -10 16 -15 0 -4 -7 -5 -17 -2
-11 4 -14 3 -9 -5 11 -17 46 -15 46 3 0 9 -8 19 -17 22 -15 6 -15 7 3 14 18 7
17 8 -3 8 -12 1 -25 -4 -28 -9z"/>
<path d="M4410 3115 c0 -31 26 -43 47 -22 21 21 9 47 -22 47 -20 0 -25 -5 -25
-25z m40 0 c0 -8 -7 -15 -15 -15 -16 0 -20 12 -8 23 11 12 23 8 23 -8z"/>
<path d="M4523 3115 c2 -25 7 -30 30 -32 24 -2 27 2 27 28 0 16 -4 29 -10 29
-5 0 -10 -9 -10 -20 0 -27 -27 -25 -33 3 -4 15 -5 12 -4 -8z"/>
<path d="M4640 3110 c0 -16 5 -30 10 -30 6 0 10 14 10 30 0 17 -4 30 -10 30
-5 0 -10 -13 -10 -30z"/>
<path d="M4676 3124 c-10 -26 19 -52 42 -38 9 6 17 20 17 30 0 26 -50 32 -59
8z m44 -8 c0 -8 -4 -17 -9 -21 -12 -7 -24 12 -16 25 9 15 25 12 25 -4z"/>
<path d="M4750 3110 c0 -16 5 -30 10 -30 6 0 10 11 10 25 0 14 5 25 10 25 6 0
10 -11 10 -25 0 -14 5 -25 10 -25 6 0 10 14 10 30 0 27 -3 30 -30 30 -27 0
-30 -3 -30 -30z"/>
<path d="M4894 3125 c-10 -25 4 -47 28 -43 17 2 24 11 26 31 3 23 0 27 -23 27
-14 0 -28 -7 -31 -15z m44 -13 c2 -7 -3 -12 -12 -12 -9 0 -16 7 -16 16 0 17
22 14 28 -4z"/>
<path d="M4970 3110 c0 -16 5 -30 10 -30 6 0 10 8 10 18 0 10 5 23 12 30 9 9
7 12 -10 12 -18 0 -22 -6 -22 -30z"/>
<path d="M5046 3123 c4 -10 7 -30 7 -45 0 -16 3 -28 7 -28 5 0 13 12 18 28 5
15 13 35 17 45 4 10 3 17 -4 17 -6 0 -11 -8 -11 -17 -1 -17 -1 -17 -14 0 -7 9
-17 17 -21 17 -4 0 -4 -8 1 -17z"/>
<path d="M5116 3124 c-10 -26 19 -52 42 -38 9 6 17 20 17 30 0 26 -50 32 -59
8z m44 -8 c0 -8 -4 -17 -9 -21 -12 -7 -24 12 -16 25 9 15 25 12 25 -4z"/>
<path d="M5192 3113 c2 -22 9 -29 31 -31 24 -3 27 0 27 27 0 17 -4 31 -10 31
-5 0 -10 -9 -10 -20 0 -11 -4 -20 -10 -20 -5 0 -10 9 -10 20 0 11 -5 20 -11
20 -6 0 -9 -12 -7 -27z"/>
<path d="M5271 3108 c1 -24 3 -27 6 -10 2 12 9 22 14 22 5 0 9 5 9 10 0 6 -7
10 -15 10 -11 0 -15 -10 -14 -32z"/>
<path d="M5422 3113 c2 -22 9 -29 31 -31 25 -3 27 -1 26 30 -1 23 -3 26 -6 11
-5 -28 -33 -30 -33 -3 0 11 -5 20 -11 20 -6 0 -9 -12 -7 -27z"/>
<path d="M5500 3125 c0 -8 7 -15 15 -15 8 0 15 -4 15 -10 0 -5 -8 -7 -17 -3
-14 5 -16 3 -6 -7 13 -14 43 -7 43 11 0 6 -10 13 -22 17 -21 5 -21 6 -2 13 18
7 17 8 -3 8 -14 1 -23 -5 -23 -14z"/>
<path d="M5560 3110 c0 -16 5 -30 10 -30 6 0 10 14 10 30 0 17 -4 30 -10 30
-5 0 -10 -13 -10 -30z"/>
<path d="M5600 3110 c0 -16 5 -30 10 -30 6 0 10 11 10 25 0 14 5 25 10 25 6 0
10 -11 10 -25 0 -14 5 -25 10 -25 6 0 10 14 10 30 0 27 -3 30 -30 30 -27 0
-30 -3 -30 -30z"/>
<path d="M5676 3124 c-12 -31 33 -60 50 -32 5 8 2 9 -9 5 -9 -3 -19 -2 -22 3
-4 6 5 10 19 10 18 0 24 4 20 15 -8 20 -50 19 -58 -1z m41 0 c-3 -3 -12 -4
-19 -1 -8 3 -5 6 6 6 11 1 17 -2 13 -5z"/>
<path d="M5750 3129 c0 -7 8 -18 18 -25 16 -13 16 -14 0 -8 -11 4 -18 1 -18
-6 0 -15 42 -9 47 7 2 6 -6 15 -19 19 -22 7 -22 7 -3 15 19 7 19 8 -2 8 -13 1
-23 -4 -23 -10z"/>
<path d="M5810 3130 c0 -6 7 -13 15 -16 8 -4 15 -10 15 -15 0 -4 -7 -5 -17 -2
-11 4 -14 3 -9 -5 4 -7 13 -12 21 -12 23 0 29 22 11 36 -16 12 -16 13 1 17 12
3 9 5 -9 6 -16 0 -28 -4 -28 -9z"/>
<path d="M5934 3125 c-4 -8 -4 -22 0 -30 6 -17 42 -20 51 -5 3 6 -3 10 -14 10
-12 0 -21 7 -21 16 0 11 6 14 21 9 15 -5 19 -4 15 4 -10 16 -46 13 -52 -4z"/>
<path d="M6040 3110 c0 -16 5 -30 10 -30 6 0 10 14 10 30 0 17 -4 30 -10 30
-5 0 -10 -13 -10 -30z"/>
<path d="M6074 3126 c-9 -24 3 -46 25 -46 29 0 35 18 9 23 l-23 4 23 2 c29 1
24 25 -6 29 -13 2 -25 -3 -28 -12z"/>
<path d="M6140 3111 c0 -17 5 -31 10 -31 6 0 10 11 10 25 0 16 6 25 15 25 9 0
15 -9 15 -25 0 -14 5 -25 11 -25 6 0 9 12 7 28 -2 22 -8 28 -35 30 -31 3 -33
1 -33 -27z"/>
<path d="M6270 3125 c0 -8 7 -15 15 -15 8 0 15 -4 15 -10 0 -5 -8 -7 -17 -3
-14 5 -16 3 -6 -7 13 -14 43 -7 43 11 0 6 -10 13 -22 17 -21 5 -21 6 -2 13 18
7 17 8 -3 8 -14 1 -23 -5 -23 -14z"/>
<path d="M6390 3110 c0 -16 5 -30 10 -30 6 0 10 14 10 30 0 17 -4 30 -10 30
-5 0 -10 -13 -10 -30z"/>
<path d="M6431 3108 c1 -29 2 -30 8 -9 9 34 31 39 31 7 0 -14 5 -26 11 -26 6
0 9 12 7 28 -2 21 -9 28 -30 30 -26 3 -28 1 -27 -30z"/>
<path d="M6511 3110 c6 -16 15 -30 20 -30 9 0 29 33 29 49 0 19 -20 12 -20 -6
-1 -17 -1 -17 -14 0 -20 26 -26 21 -15 -13z"/>
<path d="M6580 3115 c0 -29 25 -44 43 -25 10 10 8 12 -5 7 -10 -3 -20 -2 -23
3 -4 6 6 10 20 10 35 0 28 24 -8 28 -23 3 -27 0 -27 -23z m37 9 c-3 -3 -12 -4
-19 -1 -8 3 -5 6 6 6 11 1 17 -2 13 -5z"/>
<path d="M6650 3125 c0 -8 7 -15 15 -15 8 0 15 -4 15 -10 0 -5 -8 -7 -17 -3
-14 5 -16 3 -6 -7 13 -14 43 -7 43 11 0 6 -10 13 -22 17 -21 5 -21 6 -2 13 18
7 17 8 -3 8 -14 1 -23 -5 -23 -14z"/>
<path d="M6764 3126 c-10 -26 4 -48 28 -44 17 2 23 10 23 28 0 18 -6 26 -23
28 -13 2 -25 -3 -28 -12z m38 -11 c0 -5 -5 -11 -11 -13 -6 -2 -11 4 -11 13 0
9 5 15 11 13 6 -2 11 -8 11 -13z"/>
<path d="M6830 3110 c0 -16 5 -30 10 -30 6 0 10 8 10 18 0 10 5 23 12 30 9 9
7 12 -10 12 -18 0 -22 -6 -22 -30z"/>
<path d="M6885 3130 c-3 -6 1 -13 9 -16 9 -3 16 -10 16 -15 0 -4 -7 -5 -17 -2
-11 4 -14 3 -9 -5 11 -17 46 -15 46 3 0 9 -8 19 -17 22 -15 6 -15 7 3 14 18 7
17 8 -3 8 -12 1 -25 -4 -28 -9z"/>
<path d="M6974 3125 c-11 -27 4 -44 35 -43 27 1 31 5 31 30 0 25 -4 28 -30 28
-18 0 -33 -6 -36 -15z m44 -13 c2 -7 -3 -12 -12 -12 -9 0 -16 7 -16 16 0 17
22 14 28 -4z"/>
<path d="M7050 3110 c0 -16 5 -30 10 -30 6 0 10 12 10 26 0 32 22 27 31 -7 6
-21 7 -21 8 9 1 29 -2 32 -29 32 -27 0 -30 -3 -30 -30z"/>
<path d="M7234 3126 c-9 -24 3 -46 25 -46 29 0 35 18 9 23 l-23 4 23 2 c29 1
24 25 -6 29 -13 2 -25 -3 -28 -12z"/>
<path d="M7311 3108 c1 -30 2 -30 8 -9 9 34 31 39 31 7 0 -14 5 -26 10 -26 6
0 10 12 10 26 0 32 22 27 31 -7 6 -21 7 -21 8 9 1 32 1 32 -49 32 -50 0 -50 0
-49 -32z"/>
<path d="M7430 3095 c0 -25 5 -45 10 -45 6 0 10 6 10 14 0 7 9 16 20 19 14 3
20 14 20 31 0 22 -4 26 -30 26 -29 0 -30 -2 -30 -45z m48 17 c2 -7 -3 -12 -12
-12 -9 0 -16 7 -16 16 0 17 22 14 28 -4z"/>
<path d="M7544 3126 c-10 -26 4 -48 28 -44 17 2 23 10 23 28 0 18 -6 26 -23
28 -13 2 -25 -3 -28 -12z m38 -11 c0 -5 -5 -11 -11 -13 -6 -2 -11 4 -11 13 0
9 5 15 11 13 6 -2 11 -8 11 -13z"/>
<path d="M7624 3112 c10 -19 11 -33 5 -45 -7 -11 -6 -17 1 -17 11 0 51 81 44
89 -2 3 -10 -4 -17 -14 -13 -16 -14 -16 -20 -1 -4 9 -11 16 -17 16 -6 0 -5
-11 4 -28z"/>
<path d="M7690 3115 c0 -29 25 -44 43 -25 10 10 8 12 -5 7 -10 -3 -20 -2 -23
3 -4 6 6 10 20 10 35 0 28 24 -8 28 -23 3 -27 0 -27 -23z m37 9 c-3 -3 -12 -4
-19 -1 -8 3 -5 6 6 6 11 1 17 -2 13 -5z"/>
<path d="M7760 3115 c0 -29 25 -44 43 -25 10 10 8 12 -5 7 -10 -3 -20 -2 -23
3 -4 6 6 10 20 10 35 0 28 24 -8 28 -23 3 -27 0 -27 -23z m37 9 c-3 -3 -12 -4
-19 -1 -8 3 -5 6 6 6 11 1 17 -2 13 -5z"/>
<path d="M7830 3130 c0 -6 7 -13 15 -16 8 -4 15 -10 15 -15 0 -4 -7 -5 -17 -2
-11 4 -14 3 -9 -5 4 -7 13 -12 21 -12 23 0 29 22 11 36 -16 12 -16 13 1 17 12
3 9 5 -9 6 -16 0 -28 -4 -28 -9z"/>
<path d="M5881 3084 c0 -11 3 -14 6 -6 3 7 2 16 -1 19 -3 4 -6 -2 -5 -13z"/>
<path d="M6337 3093 c-4 -3 -7 -11 -7 -17 0 -6 5 -5 12 2 6 6 9 14 7 17 -3 3
-9 2 -12 -2z"/>
<path d="M1250 3074 c0 -19 50 -106 67 -117 7 -4 13 -16 13 -25 0 -9 14 -44
30 -77 16 -33 30 -66 30 -72 0 -20 18 -15 56 13 33 25 34 29 34 93 0 75 -17
111 -54 111 -13 0 -34 8 -47 19 -13 10 -48 30 -76 45 -44 22 -53 24 -53 10z
m110 -88 c45 -46 53 -60 57 -100 2 -25 1 -46 -2 -46 -2 0 -14 19 -26 43 -12
23 -39 68 -61 100 -21 31 -35 57 -30 57 5 0 33 -24 62 -54z"/>
<path d="M5818 2664 c-61 -32 -91 -144 -64 -237 31 -105 115 -140 181 -74 79
79 68 255 -19 308 -37 23 -62 23 -98 3z m56 -102 c2 -4 -4 -8 -14 -8 -10 0
-16 4 -14 8 3 4 9 8 14 8 5 0 11 -4 14 -8z m-54 -66 c0 -3 -4 -8 -10 -11 -5
-3 -10 -1 -10 4 0 6 5 11 10 11 6 0 10 -2 10 -4z m100 -6 c0 -5 -2 -10 -4 -10
-3 0 -8 5 -11 10 -3 6 -1 10 4 10 6 0 11 -4 11 -10z"/>
<path d="M724 2645 c-89 -45 -109 -217 -34 -306 24 -29 34 -34 73 -34 57 0 90
28 113 98 47 143 -48 294 -152 242z m126 -160 l0 -45 -75 0 -75 0 0 45 0 45
75 0 75 0 0 -45z"/>
<path d="M725 2512 c-5 -4 -10 -16 -10 -27 0 -27 13 -35 60 -35 47 0 60 8 60
35 0 27 -13 35 -60 35 -22 0 -44 -4 -50 -8z m31 -24 c10 -13 15 -20 10 -16 -5
4 -16 2 -25 -5 -14 -10 -14 -10 -4 4 10 12 10 18 1 27 -7 7 -10 12 -7 12 3 0
14 -10 25 -22z m56 10 c-9 -9 -9 -15 1 -27 10 -14 10 -14 -4 -4 -9 7 -20 9
-25 5 -5 -4 0 3 10 16 11 12 22 22 25 22 3 0 0 -5 -7 -12z"/>
<path d="M4358 2644 c-61 -32 -91 -144 -64 -237 41 -140 176 -144 222 -5 29
89 1 202 -60 239 -37 23 -62 23 -98 3z m17 -93 c-27 -6 -30 -11 -31 -44 -1
-56 -14 -57 -14 -1 l0 50 38 1 c34 1 35 1 7 -6z m115 -45 c0 -56 -13 -55 -14
1 -1 33 -4 38 -31 44 -28 7 -27 7 8 6 l37 -1 0 -50z m-61 20 c15 -18 3 -46
-19 -46 -10 0 -21 7 -24 16 -6 16 9 44 24 44 4 0 13 -6 19 -14z m-56 -83 c-7
-2 -19 -2 -25 0 -7 3 -2 5 12 5 14 0 19 -2 13 -5z m50 0 c-7 -2 -19 -2 -25 0
-7 3 -2 5 12 5 14 0 19 -2 13 -5z m50 0 c-7 -2 -19 -2 -25 0 -7 3 -2 5 12 5
14 0 19 -2 13 -5z"/>
<path d="M6175 2610 c-27 -53 -26 -57 5 -38 15 10 22 10 32 0 21 -21 26 -13
17 31 -4 23 -8 45 -9 50 -1 21 -23 1 -45 -43z m31 -17 c-10 -10 -19 5 -10 18
6 11 8 11 12 0 2 -7 1 -15 -2 -18z"/>
<path d="M6267 2653 c-3 -5 -8 -27 -12 -50 -7 -42 -6 -43 23 -43 57 0 86 71
36 90 -30 12 -41 12 -47 3z m48 -42 c0 -24 -28 -51 -40 -39 -4 4 -4 21 0 38 8
38 40 39 40 1z"/>
<path d="M6356 2629 c-12 -60 -8 -69 24 -69 56 0 79 80 27 94 -38 10 -44 7
-51 -25z m62 -10 c3 -17 -22 -49 -39 -49 -10 0 -12 53 -2 64 12 11 38 2 41
-15z"/>
<path d="M6455 2648 c-12 -39 -15 -88 -5 -88 5 0 10 7 10 15 0 8 4 15 9 15 5
0 11 -7 15 -15 8 -22 25 -18 19 4 -3 10 0 22 6 25 16 11 13 43 -5 50 -25 10
-44 7 -49 -6z m43 -20 c-6 -18 -28 -21 -28 -4 0 9 7 16 16 16 9 0 14 -5 12
-12z"/>
<path d="M6536 2629 c-11 -59 -8 -69 22 -68 16 1 20 3 10 6 -22 5 -24 33 -3
33 21 0 19 17 -2 23 -15 4 -15 6 5 12 29 10 28 25 -2 25 -18 0 -25 -7 -30 -31z"/>
<path d="M6623 2653 c-20 -8 -15 -41 7 -53 11 -6 18 -15 14 -21 -4 -6 -11 -6
-20 2 -16 13 -30 6 -19 -10 10 -17 55 -13 62 6 4 11 -1 22 -15 31 -28 18 -29
35 -2 27 24 -7 27 10 4 19 -9 3 -16 6 -17 5 -1 0 -8 -3 -14 -6z"/>
<path d="M6703 2653 c-20 -8 -15 -41 7 -53 11 -6 18 -15 14 -21 -4 -6 -11 -6
-20 2 -16 13 -30 6 -19 -10 10 -17 55 -13 62 6 4 11 -1 22 -15 31 -28 18 -29
35 -2 27 24 -7 27 10 4 19 -9 3 -16 6 -17 5 -1 0 -8 -3 -14 -6z"/>
<path d="M1095 2618 c-4 -18 -9 -41 -11 -50 -4 -15 1 -18 28 -17 30 0 31 1 10
10 -24 9 -22 29 4 29 8 0 14 5 14 10 0 6 -7 10 -15 10 -8 0 -15 5 -15 10 0 6
9 10 20 10 11 0 20 5 20 10 0 6 -11 10 -24 10 -20 0 -26 -7 -31 -32z"/>
<path d="M1165 2618 c-4 -18 -9 -41 -11 -50 -3 -10 -1 -18 4 -18 5 0 13 10 16
23 l7 22 10 -25 10 -25 20 24 19 23 0 -23 c0 -36 17 -10 25 39 8 52 -2 53 -34
4 l-25 -37 -8 32 c-12 45 -25 49 -33 11z"/>
<path d="M1296 2604 c-14 -26 -23 -50 -20 -53 4 -3 9 0 11 7 5 14 43 16 43 2
0 -5 5 -10 11 -10 13 0 4 79 -10 93 -5 5 -20 -13 -35 -39z m34 -3 c0 -6 -4
-13 -10 -16 -5 -3 -10 1 -10 9 0 9 5 16 10 16 6 0 10 -4 10 -9z"/>
<path d="M1387 2643 c-11 -19 -18 -93 -9 -93 5 0 13 21 17 46 6 43 3 65 -8 47z"/>
<path d="M1415 2618 c-4 -18 -9 -41 -11 -50 -4 -14 1 -18 23 -18 23 1 25 2 12
10 -13 8 -15 17 -9 45 4 19 4 37 0 40 -5 3 -11 -9 -15 -27z"/>
<path d="M1526 2604 c-14 -26 -23 -50 -20 -53 4 -3 9 0 11 7 5 14 43 16 43 2
0 -5 5 -10 11 -10 13 0 4 79 -10 93 -5 5 -20 -13 -35 -39z m34 -3 c0 -6 -4
-13 -10 -16 -5 -3 -10 1 -10 9 0 9 5 16 10 16 6 0 10 -4 10 -9z"/>
<path d="M1617 2643 c-3 -5 -8 -27 -12 -50 -7 -42 -6 -43 23 -43 57 0 86 71
36 90 -30 12 -41 12 -47 3z m48 -42 c0 -24 -28 -51 -40 -39 -4 4 -4 21 0 38 8
38 40 39 40 1z"/>
<path d="M1706 2619 c-12 -60 -8 -69 24 -69 56 0 79 80 27 94 -38 10 -44 7
-51 -25z m62 -10 c3 -17 -22 -49 -39 -49 -10 0 -12 53 -2 64 12 11 38 2 41
-15z"/>
<path d="M1805 2638 c-12 -39 -15 -88 -5 -88 5 0 10 7 10 15 0 8 4 15 9 15 5
0 11 -7 15 -15 8 -22 25 -18 19 4 -3 10 0 22 6 25 16 11 13 43 -5 50 -25 10
-44 7 -49 -6z m43 -20 c-6 -18 -28 -21 -28 -4 0 9 7 16 16 16 9 0 14 -5 12
-12z"/>
<path d="M1886 2619 c-11 -59 -8 -69 22 -68 16 1 20 3 10 6 -22 5 -24 33 -3
33 21 0 19 17 -2 23 -15 4 -15 6 5 12 29 10 28 25 -2 25 -18 0 -25 -7 -30 -31z"/>
<path d="M1973 2643 c-20 -8 -15 -41 7 -53 11 -6 18 -15 14 -21 -4 -6 -11 -6
-20 2 -16 13 -30 6 -19 -10 10 -17 55 -13 62 6 4 11 -1 22 -15 31 -28 18 -29
35 -2 27 24 -7 27 10 4 19 -9 3 -16 6 -17 5 -1 0 -8 -3 -14 -6z"/>
<path d="M2053 2643 c-20 -8 -15 -41 7 -53 11 -6 18 -15 14 -21 -4 -6 -11 -6
-20 2 -16 13 -30 6 -19 -10 10 -17 55 -13 62 6 4 11 -1 22 -15 31 -28 18 -29
35 -2 27 24 -7 27 10 4 19 -9 3 -16 6 -17 5 -1 0 -8 -3 -14 -6z"/>
<path d="M2554 2640 c-32 -13 -72 -66 -85 -113 -22 -82 8 -184 65 -218 86 -53
173 18 184 148 6 71 -33 153 -82 177 -38 18 -51 19 -82 6z m86 -156 l0 -74
-45 0 -45 0 0 74 0 74 45 0 45 0 0 -74z"/>
<path d="M2560 2485 l0 -55 35 0 35 0 0 55 0 55 -35 0 -35 0 0 -55z"/>
<path d="M2884 2595 c-7 -47 2 -76 12 -38 4 12 16 23 27 25 25 3 35 37 15 49
-31 20 -47 10 -54 -36z m51 15 c3 -6 -1 -13 -10 -16 -19 -8 -30 0 -20 15 8 14
22 14 30 1z"/>
<path d="M2964 2595 c-7 -48 3 -76 13 -37 7 30 43 30 43 0 0 -35 17 -8 24 40
4 24 2 42 -3 42 -5 0 -11 -10 -13 -22 -2 -15 -10 -23 -23 -23 -15 0 -19 6 -17
23 2 12 -1 22 -7 22 -5 0 -13 -20 -17 -45z"/>
<path d="M3074 2615 c-37 -37 -26 -75 22 -75 52 0 73 74 26 91 -18 7 -28 4
-48 -16z m54 -21 c4 -29 -23 -51 -43 -34 -18 15 -19 32 -3 48 18 18 42 10 46
-14z"/>
<path d="M3178 2634 c-13 -21 -19 -94 -9 -94 6 0 11 11 11 25 0 14 4 25 8 25
5 0 14 -11 20 -25 16 -35 28 -31 36 13 8 52 8 64 -4 57 -5 -3 -10 -18 -11 -33
0 -25 -1 -25 -12 -9 -27 43 -34 50 -39 41z"/>
<path d="M3266 2609 c-11 -59 -8 -69 22 -68 16 1 20 3 10 6 -22 5 -24 33 -3
33 21 0 19 17 -2 23 -15 4 -15 6 5 12 29 10 28 25 -2 25 -18 0 -25 -7 -30 -31z"/>
<path d="M3376 2609 c-3 -17 -6 -41 -6 -52 0 -28 17 -10 23 23 4 24 4 24 16
-7 18 -47 37 -41 45 14 6 48 1 70 -10 37 -3 -10 -8 -26 -11 -34 -4 -10 -10 -5
-21 18 -20 40 -28 40 -36 1z"/>
<path d="M3475 2606 c-9 -48 -1 -66 30 -66 29 0 48 36 42 79 -3 26 -3 26 -11
-4 -16 -65 -41 -77 -42 -20 -1 48 -11 54 -19 11z"/>
<path d="M3577 2633 c-12 -20 -18 -93 -8 -93 6 0 11 10 11 23 1 21 1 21 12 2
6 -11 12 -22 14 -24 2 -2 13 7 24 20 21 24 21 24 15 2 -4 -13 -2 -23 4 -23 12
0 25 59 19 87 -4 14 -9 10 -28 -20 -23 -39 -39 -36 -40 5 0 19 -16 33 -23 21z"/>
<path d="M3697 2633 c-3 -5 -8 -27 -12 -51 l-7 -43 33 3 c29 3 34 7 40 38 5
20 3 40 -3 47 -11 14 -44 17 -51 6z m43 -23 c0 -5 -7 -10 -15 -10 -8 0 -15 5
-15 10 0 6 7 10 15 10 8 0 15 -4 15 -10z m-12 -42 c-6 -18 -28 -21 -28 -4 0 9
7 16 16 16 9 0 14 -5 12 -12z"/>
<path d="M3775 2608 c-4 -18 -9 -41 -11 -50 -4 -15 1 -18 28 -17 30 0 31 1 10
10 -24 9 -22 29 4 29 8 0 14 5 14 10 0 6 -7 10 -15 10 -8 0 -15 5 -15 10 0 6
9 10 20 10 11 0 20 5 20 10 0 6 -11 10 -24 10 -20 0 -26 -7 -31 -32z"/>
<path d="M3845 2608 c-4 -18 -9 -41 -11 -50 -3 -10 -1 -18 5 -18 6 0 11 7 11
15 0 8 5 15 10 15 6 0 13 -7 16 -15 9 -22 26 -18 19 4 -3 11 -1 22 5 26 16 10
12 42 -6 49 -31 12 -43 6 -49 -26z m45 -3 c0 -8 -7 -15 -15 -15 -8 0 -15 7
-15 15 0 8 7 15 15 15 8 0 15 -7 15 -15z"/>
<path d="M4720 2623 c0 -35 12 -83 21 -83 5 0 15 12 22 26 l14 27 7 -27 c3
-14 10 -26 14 -26 7 0 52 83 52 95 0 16 -19 0 -33 -27 l-16 -33 0 27 c-1 40
-18 43 -38 6 -17 -33 -17 -33 -21 -8 -5 33 -22 51 -22 23z"/>
<path d="M4856 2609 c-11 -59 -8 -69 22 -68 16 1 20 3 10 6 -22 5 -24 33 -3
33 21 0 19 17 -2 23 -15 4 -15 6 5 12 29 10 28 25 -2 25 -18 0 -25 -7 -30 -31z"/>
<path d="M4926 2609 c-12 -62 -9 -71 27 -67 27 2 32 7 33 29 1 14 4 31 8 37 7
12 -23 32 -47 32 -8 0 -17 -14 -21 -31z m54 1 c0 -5 -9 -10 -21 -10 -11 0 -17
5 -14 10 3 6 13 10 21 10 8 0 14 -4 14 -10z m-12 -42 c-6 -18 -28 -21 -28 -4
0 9 7 16 16 16 9 0 14 -5 12 -12z"/>
<path d="M5022 2628 c-18 -18 -15 -36 8 -48 11 -6 18 -15 14 -21 -4 -7 -10 -6
-19 1 -8 6 -16 7 -19 2 -8 -13 4 -22 31 -22 33 0 42 30 15 48 -28 18 -29 35
-2 27 24 -7 27 10 4 19 -20 8 -18 8 -32 -6z"/>
<path d="M5092 2593 c-10 -44 -9 -63 2 -52 10 10 23 89 16 94 -5 3 -13 -16
-18 -42z"/>
<path d="M5130 2630 c0 -5 5 -10 11 -10 7 0 8 -14 4 -40 -4 -24 -3 -40 3 -40
5 0 12 18 16 40 4 27 11 40 22 40 8 0 12 5 9 10 -3 6 -19 10 -36 10 -16 0 -29
-4 -29 -10z"/>
<path d="M5205 2608 c-4 -18 -9 -41 -11 -50 -4 -15 1 -18 28 -17 30 0 31 1 10
10 -24 9 -22 29 4 29 8 0 14 5 14 10 0 6 -7 10 -15 10 -8 0 -15 5 -15 10 0 6
9 10 20 10 11 0 20 5 20 10 0 6 -11 10 -24 10 -20 0 -26 -7 -31 -32z"/>
<path d="M1246 2397 c-3 -12 -5 -33 -5 -47 l1 -25 10 28 c13 35 41 37 32 2 -4
-15 -2 -25 5 -25 6 0 11 14 11 30 0 17 -4 30 -9 30 -5 0 -16 7 -24 15 -13 12
-16 12 -21 -8z"/>
<path d="M1327 2413 c-10 -19 -17 -83 -9 -83 6 0 12 19 14 43 5 43 4 54 -5 40z"/>
<path d="M1357 2413 c-10 -18 -17 -83 -9 -83 5 0 12 19 15 42 6 42 4 57 -6 41z"/>
<path d="M1096 2398 c-13 -41 -15 -68 -6 -68 5 0 10 8 10 18 1 16 1 16 14 0
17 -23 30 -23 22 -1 -4 9 -1 20 5 24 7 4 9 14 6 23 -7 19 -46 22 -51 4z m34
-7 c0 -6 -4 -13 -10 -16 -5 -3 -10 1 -10 9 0 9 5 16 10 16 6 0 10 -4 10 -9z"/>
<path d="M1409 2396 c-18 -9 -24 -20 -24 -46 0 -32 3 -35 30 -37 28 -2 28 -1
5 5 -46 14 -33 72 17 72 27 0 41 -26 23 -43 -10 -10 -11 -7 -5 11 6 21 4 23
-22 20 -20 -2 -28 -8 -28 -23 0 -16 7 -20 35 -20 32 0 35 3 35 29 0 35 -30 50
-66 32z m31 -41 c0 -8 -4 -15 -10 -15 -5 0 -10 7 -10 15 0 8 5 15 10 15 6 0
10 -7 10 -15z"/>
<path d="M1618 2396 c-20 -10 -29 -11 -38 -2 -9 8 -11 6 -5 -12 4 -13 2 -29
-5 -36 -8 -11 -6 -14 15 -12 18 1 23 5 20 17 -3 9 1 22 10 29 13 11 15 8 15
-19 0 -23 5 -31 18 -31 13 0 14 2 3 9 -10 7 -11 13 -1 31 16 30 1 43 -32 26z"/>
<path d="M6242 2393 c-9 -13 -14 -15 -18 -5 -3 6 -19 12 -35 12 -36 0 -60 -39
-39 -65 19 -23 46 -18 70 13 l21 27 -6 -27 c-3 -16 -1 -28 5 -28 5 0 10 11 10
25 0 16 6 25 16 25 12 0 15 -6 10 -25 -4 -14 -2 -25 4 -25 5 0 10 11 10 25 0
14 4 25 9 25 6 0 9 9 8 20 -2 24 -13 26 -21 4 -3 -8 -10 -12 -16 -9 -6 4 -8
11 -5 16 11 17 -10 9 -23 -8z m-35 -19 c7 -19 -20 -49 -36 -40 -15 10 -14 43
2 49 21 9 27 7 34 -9z"/>
<path d="M6316 2379 c-3 -17 -6 -39 -6 -48 1 -14 2 -14 9 -1 13 23 21 80 12
80 -5 0 -11 -14 -15 -31z"/>
<path d="M6573 2394 c-17 -14 -17 -15 5 -9 31 9 28 -14 -5 -42 l-28 -22 35 0
c25 -1 31 2 20 9 -12 8 -12 11 3 28 9 10 17 23 17 29 0 18 -27 22 -47 7z"/>
<path d="M6645 2394 c-8 -9 -15 -29 -15 -45 0 -22 5 -29 20 -29 34 0 56 72 25
84 -8 3 -21 -2 -30 -10z m30 -14 c3 -5 1 -19 -5 -31 -15 -27 -35 -10 -25 20 7
22 20 27 30 11z"/>
<path d="M6717 2395 c-18 -18 -12 -45 10 -45 8 0 12 -4 8 -10 -3 -5 -13 -6
-22 -3 -11 4 -14 3 -9 -5 13 -21 45 -13 52 12 13 52 -10 81 -39 51z m33 -15
c0 -5 -7 -10 -15 -10 -8 0 -15 5 -15 10 0 6 7 10 15 10 8 0 15 -4 15 -10z"/>
<path d="M7037 2393 c-14 -51 -16 -73 -8 -73 5 0 12 18 16 41 7 41 1 65 -8 32z"/>
<path d="M7066 2388 c-7 -27 -8 -73 -2 -67 10 9 24 89 16 89 -4 0 -10 -10 -14
-22z"/>
<path d="M8096 2379 c-3 -17 -6 -39 -6 -48 1 -14 2 -14 9 -1 13 23 21 80 12
80 -5 0 -11 -14 -15 -31z"/>
<path d="M1175 2387 c-8 -4 -15 -19 -15 -32 0 -21 5 -25 30 -25 17 0 30 5 30
13 0 6 3 22 6 34 5 18 2 22 -15 20 -12 -1 -28 -5 -36 -10z m35 -21 c0 -20 -19
-31 -32 -18 -6 6 -7 15 -4 21 10 16 36 13 36 -3z"/>
<path d="M1500 2387 c0 -6 -3 -22 -6 -34 -4 -13 -2 -23 4 -23 6 0 12 10 14 22
5 33 28 35 29 1 l0 -28 10 24 c6 16 6 28 -1 35 -15 15 -50 18 -50 3z"/>
<path d="M1685 2387 c-22 -12 -19 -48 5 -54 11 -3 17 -9 14 -15 -3 -5 -15 -6
-26 -2 -14 4 -18 2 -14 -5 4 -6 18 -11 31 -11 19 0 26 8 34 38 6 20 11 42 11
47 0 13 -34 14 -55 2z m35 -21 c0 -20 -19 -31 -32 -18 -6 6 -7 15 -4 21 10 16
36 13 36 -3z"/>
<path d="M1787 2380 c-28 -23 -16 -50 23 -50 27 0 30 3 30 33 0 38 -19 44 -53
17z m36 -7 c9 -9 -13 -34 -24 -27 -14 8 -11 34 4 34 8 0 17 -3 20 -7z"/>
<path d="M1870 2382 c-27 -22 -22 -52 9 -52 29 0 48 38 29 57 -13 12 -18 11
-38 -5z m27 -8 c-3 -3 -12 -4 -19 -1 -8 3 -5 6 6 6 11 1 17 -2 13 -5z m-2 -24
c-3 -5 -10 -10 -16 -10 -5 0 -9 5 -9 10 0 6 7 10 16 10 8 0 12 -4 9 -10z"/>
<path d="M6525 2360 c-1 -48 10 -53 19 -9 8 44 8 49 -6 49 -8 0 -13 -15 -13
-40z"/>
<path d="M6840 2383 c0 -10 -3 -28 -7 -41 -5 -21 -3 -23 22 -20 22 2 31 10 36
32 10 36 4 46 -27 46 -16 0 -24 -6 -24 -17z m40 -3 c0 -5 -7 -10 -16 -10 -8 0
-12 5 -9 10 3 6 10 10 16 10 5 0 9 -4 9 -10z m-5 -40 c-3 -5 -10 -10 -16 -10
-5 0 -9 5 -9 10 0 6 7 10 16 10 8 0 12 -4 9 -10z"/>
<path d="M7249 2393 c0 -5 -2 -23 -5 -40 -3 -24 0 -33 10 -33 9 0 12 7 9 21
-3 12 0 25 7 29 7 4 9 13 6 19 -8 12 -26 15 -27 4z"/>
<path d="M7479 2391 c9 -6 12 -19 8 -40 -4 -17 -3 -31 2 -31 5 0 12 15 15 34
4 19 12 37 19 39 7 3 -4 6 -23 6 -24 0 -31 -2 -21 -8z"/>
<path d="M7886 2369 c-9 -47 -8 -49 18 -49 29 0 33 5 37 45 4 26 1 30 -22 33
-22 3 -27 -2 -33 -29z m44 11 c0 -5 -7 -10 -16 -10 -8 0 -12 5 -9 10 3 6 10
10 16 10 5 0 9 -4 9 -10z m-5 -40 c-3 -5 -10 -10 -16 -10 -5 0 -9 5 -9 10 0 6
7 10 16 10 8 0 12 -4 9 -10z"/>
<path d="M8436 2384 c-3 -9 -6 -27 -6 -40 0 -22 4 -25 27 -22 35 4 45 37 14
45 -12 3 -21 9 -21 14 0 13 14 11 28 -3 9 -9 12 -8 12 5 0 22 -46 23 -54 1z
m34 -44 c0 -5 -7 -10 -15 -10 -8 0 -15 5 -15 10 0 6 7 10 15 10 8 0 15 -4 15
-10z"/>
<path d="M2990 2370 c-12 -23 -6 -40 16 -40 8 0 13 -4 9 -10 -3 -5 -13 -6 -23
-3 -14 5 -15 4 -4 -8 20 -22 47 2 47 42 0 40 -27 52 -45 19z m40 -9 c0 -5 -7
-11 -15 -15 -9 -3 -15 0 -15 9 0 8 7 15 15 15 8 0 15 -4 15 -9z"/>
<path d="M3055 2380 c-3 -5 4 -10 15 -10 l22 0 -21 -35 c-11 -19 -16 -35 -12
-35 10 0 51 65 51 81 0 12 -47 12 -55 -1z"/>
<path d="M3207 2383 c-4 -3 -7 -17 -7 -31 0 -20 3 -22 14 -13 10 8 16 9 21 1
11 -17 -5 -31 -28 -24 -17 5 -19 3 -11 -6 18 -18 49 -8 52 18 2 16 -3 25 -20
31 -22 10 -22 10 5 10 16 1 26 5 22 11 -7 11 -38 13 -48 3z"/>
<path d="M3467 2375 c-18 -18 -12 -45 10 -45 8 0 12 -4 8 -10 -3 -5 -13 -6
-22 -3 -11 4 -14 3 -9 -5 13 -21 45 -13 52 12 13 52 -10 81 -39 51z m33 -15
c0 -5 -7 -10 -15 -10 -8 0 -15 5 -15 10 0 6 7 10 15 10 8 0 15 -4 15 -10z"/>
<path d="M3530 2380 c0 -5 9 -10 21 -10 20 0 20 0 -1 -31 -12 -16 -20 -32 -17
-35 8 -8 57 68 51 78 -7 11 -54 10 -54 -2z"/>
<path d="M3630 2380 c0 -5 9 -10 21 -10 20 0 20 0 -1 -31 -12 -16 -20 -32 -17
-35 3 -3 16 9 29 28 22 32 68 50 68 26 0 -7 -12 -22 -27 -35 l-28 -22 35 0
c25 -1 31 2 20 9 -12 8 -12 11 3 28 30 32 13 60 -25 41 -10 -6 -19 -5 -23 1
-8 13 -55 13 -55 0z"/>
<path d="M3830 2380 c0 -5 7 -10 15 -10 19 0 19 -5 -1 -36 -9 -13 -14 -27 -11
-30 6 -6 47 59 47 75 0 6 -11 11 -25 11 -14 0 -25 -4 -25 -10z"/>
<path d="M6355 2376 c-9 -7 -16 -21 -13 -32 4 -22 35 -31 51 -15 9 9 5 11 -13
9 -17 -2 -25 2 -25 12 0 9 9 15 23 14 25 -1 30 11 8 19 -8 3 -22 0 -31 -7z"/>
<path d="M6425 2376 c-25 -18 -15 -51 15 -51 20 0 26 6 28 26 4 31 -18 44 -43
25z m32 -12 c-3 -3 -12 -4 -19 -1 -8 3 -5 6 6 6 11 1 17 -2 13 -5z m-7 -24 c0
-5 -4 -10 -10 -10 -5 0 -10 5 -10 10 0 6 5 10 10 10 6 0 10 -4 10 -10z"/>
<path d="M6952 2362 c-13 -38 -37 -44 -30 -7 3 14 1 25 -3 25 -5 0 -9 -13 -9
-30 0 -25 4 -30 25 -30 18 0 26 7 31 25 10 39 -1 53 -14 17z"/>
<path d="M6990 2377 c0 -7 -3 -22 -6 -34 -4 -14 -2 -23 5 -23 6 0 11 8 11 18
0 10 5 23 11 29 7 7 6 12 -5 16 -9 4 -16 1 -16 -6z"/>
<path d="M7096 2382 c-3 -3 -6 -19 -5 -36 l1 -31 10 28 c13 35 41 37 32 2 -4
-15 -2 -25 5 -25 12 0 16 60 4 61 -5 0 -16 2 -25 4 -9 2 -19 0 -22 -3z"/>
<path d="M7173 2372 c-20 -20 -12 -45 17 -52 15 -4 20 -9 13 -13 -6 -4 -18 -4
-27 -1 -9 3 -16 1 -16 -5 0 -6 11 -11 25 -11 27 0 45 30 45 74 0 26 -34 30
-57 8z m35 -19 c-5 -25 -28 -28 -28 -4 0 12 6 21 16 21 9 0 14 -7 12 -17z"/>
<path d="M7366 2382 c-3 -3 -6 -19 -5 -36 l1 -31 10 28 c13 35 41 37 32 2 -4
-15 -2 -25 5 -25 12 0 16 60 4 61 -5 0 -16 2 -25 4 -9 2 -19 0 -22 -3z"/>
<path d="M7611 2370 c-1 -14 4 -32 9 -40 9 -13 11 -13 21 0 8 11 12 12 16 3
10 -25 25 -13 18 15 -10 40 -24 51 -32 23 l-6 -23 -13 23 -13 24 0 -25z"/>
<path d="M7687 2383 c-4 -3 -7 -13 -7 -22 1 -13 3 -13 11 2 11 19 8 33 -4 20z"/>
<path d="M7787 2382 c-12 -20 -16 -62 -7 -62 5 0 10 9 10 20 0 10 7 23 16 28
15 8 15 10 0 15 -8 3 -17 3 -19 -1z"/>
<path d="M7958 2365 c-8 -37 -3 -45 27 -45 18 0 25 7 30 31 4 17 4 33 1 36 -5
5 -10 -5 -22 -44 -7 -25 -23 -13 -26 20 l-3 32 -7 -30z"/>
<path d="M8043 2383 c-18 -6 -16 -23 5 -40 16 -14 16 -14 0 -9 -10 3 -18 1
-18 -4 0 -11 33 -14 43 -3 4 3 -1 15 -10 26 -17 19 -17 20 0 14 9 -4 17 -2 17
2 0 11 -22 19 -37 14z"/>
<path d="M8130 2377 c0 -6 -3 -22 -6 -34 -4 -13 -2 -23 4 -23 6 0 12 10 14 22
5 33 28 35 29 1 l0 -28 10 24 c6 16 6 28 -1 35 -15 15 -50 18 -50 3z"/>
<path d="M8217 2378 c-23 -13 -23 -58 1 -58 23 0 42 19 42 41 0 21 -21 30 -43
17z m23 -32 c0 -3 -4 -8 -10 -11 -5 -3 -10 -1 -10 4 0 6 5 11 10 11 6 0 10 -2
10 -4z"/>
<path d="M8283 2383 c-18 -6 -16 -23 5 -40 16 -14 16 -14 0 -9 -10 3 -18 1
-18 -4 0 -11 33 -14 43 -3 4 3 -1 15 -10 26 -17 19 -17 20 0 14 9 -4 17 -2 17
2 0 11 -22 19 -37 14z"/>
<path d="M8341 2377 c-8 -8 -6 -16 7 -31 16 -18 16 -19 0 -13 -10 4 -18 2 -18
-3 0 -13 37 -13 45 1 4 6 -1 17 -11 25 -17 14 -17 15 -1 10 20 -6 23 9 3 17
-7 3 -19 0 -25 -6z"/>
<path d="M8513 2375 c-23 -17 -12 -50 18 -53 25 -3 38 15 39 53 0 14 -38 14
-57 0z m37 -19 c0 -8 -5 -18 -11 -22 -14 -8 -33 11 -25 25 10 16 36 13 36 -3z"/>
<path d="M8583 2340 c1 -27 3 -50 4 -50 5 0 53 88 53 96 0 5 -9 -2 -20 -16
-15 -20 -20 -21 -20 -8 0 9 -4 19 -9 22 -5 3 -8 -17 -8 -44z"/>
<path d="M3123 2338 c-3 -48 5 -45 17 6 5 25 4 36 -4 36 -6 0 -12 -19 -13 -42z"/>
<path d="M3294 2368 c-4 -6 -2 -14 4 -16 7 -2 9 -8 6 -14 -4 -7 -9 -6 -14 1
-5 9 -10 8 -20 -4 -11 -13 -9 -15 9 -15 11 0 21 -5 21 -12 0 -28 23 13 24 42
1 30 -16 41 -30 18z"/>
<path d="M3404 2368 c-4 -6 -2 -14 4 -16 7 -2 9 -8 6 -14 -4 -7 -9 -6 -14 1
-5 9 -10 8 -20 -4 -11 -13 -9 -15 9 -15 11 0 21 -5 21 -12 0 -28 23 13 24 42
1 30 -16 41 -30 18z"/>
<path d="M3764 2369 c-4 -8 0 -9 15 -4 29 9 27 -9 -4 -33 -33 -26 -32 -32 8
-31 24 0 27 2 14 8 -17 6 -17 8 -3 20 23 19 21 51 -3 51 -11 0 -23 -5 -27 -11z"/>
<path d="M5138 2366 c-20 -10 -29 -11 -38 -2 -9 8 -11 6 -5 -12 4 -13 2 -29
-5 -36 -8 -11 -6 -14 15 -12 18 1 23 5 20 17 -3 9 1 22 10 29 13 11 15 8 15
-19 0 -23 5 -31 18 -31 13 0 14 2 3 9 -10 7 -11 13 -1 31 16 30 1 43 -32 26z"/>
<path d="M7290 2365 c-16 -19 -6 -45 18 -45 25 0 46 25 38 45 -7 19 -40 19
-56 0z m44 -4 c7 -10 -22 -37 -30 -28 -9 8 3 37 15 37 5 0 12 -4 15 -9z"/>
<path d="M7535 2360 c-8 -25 1 -40 24 -40 24 0 45 25 37 45 -8 23 -53 19 -61
-5z m43 -7 c-5 -25 -28 -28 -28 -4 0 12 6 21 16 21 9 0 14 -7 12 -17z"/>
<path d="M7705 2360 c-8 -25 1 -40 25 -40 21 0 45 34 35 50 -11 18 -53 11 -60
-10z m42 4 c-3 -3 -12 -4 -19 -1 -8 3 -5 6 6 6 11 1 17 -2 13 -5z m-2 -24 c-3
-5 -10 -10 -16 -10 -5 0 -9 5 -9 10 0 6 7 10 16 10 8 0 12 -4 9 -10z"/>
<path d="M2930 2361 c0 -6 -7 -11 -15 -11 -18 0 -19 -7 -2 -24 11 -11 16 -11
31 0 17 12 17 14 2 29 -9 9 -16 12 -16 6z"/>
<path d="M4701 2350 c-1 -14 4 -32 9 -40 9 -13 11 -13 21 0 8 11 12 12 16 3 8
-21 20 -15 27 12 4 14 11 25 16 25 6 0 10 -11 10 -25 0 -29 15 -33 29 -7 10
16 10 16 11 0 0 -27 19 -21 31 10 l11 27 10 -27 c10 -30 23 -36 31 -15 4 9 8
8 16 -3 5 -8 11 -12 13 -10 11 15 28 63 24 68 -3 3 -10 -6 -15 -19 -7 -16 -10
-19 -10 -7 -1 27 -20 31 -30 6 -6 -13 -10 -18 -11 -13 0 6 -5 17 -10 25 -9 13
-13 11 -30 -10 l-20 -25 0 25 0 25 -20 -25 -20 -25 0 23 c0 13 -6 22 -15 22
-9 0 -20 -10 -25 -22 -6 -17 -9 -18 -9 -6 -1 27 -22 32 -28 8 l-6 -22 -13 23
-13 24 0 -25z"/>
<path d="M5020 2357 c0 -6 -3 -22 -6 -34 -4 -13 -2 -23 4 -23 6 0 12 10 14 22
5 33 28 35 29 1 l0 -28 10 24 c6 16 6 28 -1 35 -15 15 -50 18 -50 3z"/>
<path d="M5205 2357 c-8 -4 -15 -19 -15 -32 0 -19 5 -25 21 -25 11 0 17 -4 14
-10 -4 -6 -16 -8 -27 -4 -14 4 -18 2 -14 -5 10 -15 41 -14 53 2 6 6 13 29 17
49 6 33 4 37 -14 35 -11 -1 -27 -5 -35 -10z m35 -21 c0 -8 -5 -18 -11 -22 -14
-8 -33 11 -25 25 10 16 36 13 36 -3z"/>
<path d="M5307 2350 c-28 -23 -16 -50 23 -50 27 0 30 3 30 33 0 38 -19 44 -53
17z m36 -7 c9 -9 -13 -34 -24 -27 -14 8 -11 34 4 34 8 0 17 -3 20 -7z"/>
<path d="M5390 2352 c-27 -22 -22 -52 9 -52 29 0 48 38 29 57 -13 12 -18 11
-38 -5z m27 -8 c-3 -3 -12 -4 -19 -1 -8 3 -5 6 6 6 11 1 17 -2 13 -5z m-2 -24
c-3 -5 -10 -10 -16 -10 -5 0 -9 5 -9 10 0 6 7 10 16 10 8 0 12 -4 9 -10z"/>
<path d="M6766 2324 c-4 -9 -4 -19 -1 -22 2 -3 7 3 11 12 4 9 4 19 1 22 -2 3
-7 -3 -11 -12z"/>
<path d="M7816 2323 c-6 -14 -5 -15 5 -6 7 7 10 15 7 18 -3 3 -9 -2 -12 -12z"/>
<path d="M8645 2329 c-4 -6 -5 -12 -2 -15 2 -3 7 2 10 11 7 17 1 20 -8 4z"/>
<path d="M6466 2238 c-7 -27 -8 -73 -2 -67 10 9 24 89 16 89 -4 0 -10 -10 -14
-22z"/>
<path d="M6150 2233 c0 -10 -3 -28 -6 -40 -5 -19 -2 -23 18 -23 33 0 62 32 53
59 -8 27 -65 30 -65 4z m48 -18 c4 -16 -12 -34 -30 -35 -10 0 -10 44 -1 54 11
11 28 1 31 -19z"/>
<path d="M6306 2219 c-3 -17 -6 -35 -6 -40 0 -14 58 -11 64 4 5 10 7 10 12 0
3 -7 19 -13 35 -13 16 0 29 5 29 13 0 6 3 22 6 35 6 21 4 22 -22 18 -16 -3
-35 -13 -41 -23 -12 -16 -13 -16 -13 0 0 15 -11 22 -32 18 -5 0 -8 4 -8 9 0
23 -18 7 -24 -21z m47 -6 c9 -9 -13 -34 -24 -27 -14 8 -11 34 4 34 8 0 17 -3
20 -7z m77 -7 c0 -8 -5 -18 -11 -22 -14 -8 -33 11 -25 25 10 16 36 13 36 -3z"/>
<path d="M6272 2212 c-13 -38 -37 -44 -30 -7 3 14 1 25 -3 25 -5 0 -9 -13 -9
-30 0 -25 4 -30 25 -30 18 0 26 7 31 25 10 39 -1 53 -14 17z"/>
<path d="M50 975 l0 -915 1834 0 1834 0 12 50 c13 54 7 107 -16 152 -20 38
-18 158 3 202 16 34 16 37 -7 80 -18 36 -21 53 -16 90 6 38 12 47 32 52 29 8
57 -13 49 -35 -14 -35 -48 -258 -47 -311 0 -46 51 -94 90 -86 15 3 67 10 115
16 48 5 92 12 97 15 18 11 92 -14 108 -37 20 -27 22 -44 5 -41 -7 2 -13 -1
-13 -5 0 -10 -88 -39 -142 -47 -23 -4 -58 -22 -90 -48 l-53 -42 229 -3 c126
-1 231 0 233 2 2 2 -12 26 -31 54 -20 27 -36 55 -36 62 0 8 -7 21 -15 30 -13
14 -9 16 43 12 31 -2 83 -12 114 -23 32 -10 65 -19 75 -19 10 0 23 -8 30 -19
13 -21 91 -35 110 -19 7 6 13 24 13 40 0 24 3 27 18 20 34 -18 93 -23 129 -11
24 8 42 8 57 1 11 -6 29 -13 39 -16 13 -4 17 -17 17 -61 l0 -55 107 0 c104 0
108 1 129 27 17 22 28 26 65 25 47 -1 106 -11 209 -36 58 -14 283 -16 2008
-16 l1942 0 0 915 0 915 -891 0 c-838 0 -893 -1 -905 -17 -11 -17 -15 -17 -46
-3 -28 13 -131 15 -688 18 l-655 2 3 -112 c1 -62 7 -149 12 -192 6 -44 10
-116 10 -160 0 -45 5 -121 10 -171 6 -49 12 -157 13 -240 l2 -150 -40 -3 c-23
-2 -65 1 -95 7 -73 13 -309 67 -339 79 l-24 8 26 21 c34 26 102 129 126 190
36 91 44 158 31 247 -6 44 -21 104 -33 131 -45 109 -144 221 -224 256 -18 8
-33 17 -33 21 0 5 -9 8 -19 8 -10 0 -51 14 -89 30 -54 23 -86 30 -134 30 -56
0 -66 -3 -95 -31 -18 -16 -33 -34 -33 -38 0 -5 -21 -23 -47 -39 -55 -36 -101
-82 -130 -132 -23 -39 -67 -150 -77 -192 -6 -26 -5 -26 36 -21 33 5 44 2 55
-12 20 -29 16 -38 -17 -33 -19 3 -30 0 -30 -7 0 -7 11 -10 30 -7 22 3 30 0 30
-11 0 -23 -29 -41 -66 -40 -19 1 -34 -1 -34 -3 0 -8 52 -104 59 -108 3 -2 6
-28 5 -58 l-1 -53 -37 1 c-34 1 -37 -1 -31 -20 16 -57 17 -89 1 -131 -55 -143
-249 -149 -316 -10 -41 85 -4 188 81 224 22 9 39 19 39 23 0 10 -42 37 -104
68 -37 18 -51 31 -50 46 0 12 -9 25 -23 31 -13 6 -23 7 -23 2 0 -5 -25 -9 -55
-9 -62 0 -75 13 -75 74 0 33 2 36 30 36 28 0 30 -3 30 -36 0 -21 4 -33 10 -29
6 3 10 19 10 36 0 24 4 29 25 29 22 0 25 -4 25 -35 0 -19 3 -35 8 -35 6 0 9
71 4 106 -1 6 -14 24 -29 39 -19 19 -24 29 -15 32 6 3 12 13 12 24 0 11 7 36
16 57 11 25 16 73 17 150 l2 112 -2085 -3 c-1147 -1 -2096 -6 -2110 -10 -20
-6 -21 -5 -5 2 14 7 -38 10 -157 10 l-178 1 0 -915z m265 886 c18 -7 16 -9
-12 -15 -37 -9 -63 1 -42 15 17 10 27 10 54 0z m6587 -101 c-3 -21 -10 -30
-23 -30 -19 0 -17 20 4 48 16 21 24 14 19 -18z m-26 -96 c2 -48 32 -113 59
-128 11 -6 27 -18 35 -27 8 -9 34 -24 58 -34 23 -10 42 -22 42 -26 0 -6 50
-41 85 -59 36 -19 105 -67 133 -93 17 -17 32 -27 32 -21 0 5 3 5 8 -1 4 -6 27
-23 51 -40 l44 -29 -6 -66 c-3 -36 -10 -77 -16 -93 l-11 -27 -55 55 c-31 30
-77 69 -103 87 -51 34 -135 117 -153 149 -5 11 -24 28 -40 38 -33 20 -96 73
-179 149 -66 61 -80 99 -56 155 14 35 42 59 61 53 6 -1 11 -20 11 -42z m-2609
-190 c3 -9 0 -20 -8 -25 -10 -6 -10 -9 -1 -9 8 0 13 -18 14 -52 l2 -53 3 53 4
52 53 0 c60 0 66 -6 66 -71 0 -35 -3 -39 -25 -39 -22 0 -25 4 -25 35 0 19 -4
35 -10 35 -5 0 -10 -16 -10 -35 l0 -35 -60 0 c-33 0 -60 4 -60 9 0 6 -12 3
-27 -5 -38 -19 -50 -18 -78 10 -22 22 -25 23 -30 6 -8 -26 -52 -34 -81 -15
-32 21 -32 55 0 55 13 0 27 -6 29 -12 3 -7 6 11 6 40 1 49 3 52 26 52 23 0 25
-4 25 -42 0 -41 1 -42 13 -18 16 31 76 40 101 15 14 -15 16 -15 16 -1 0 9 6
16 13 17 10 0 10 2 0 6 -7 2 -13 13 -13 24 0 24 48 27 57 3z m860 0 c3 -9 0
-20 -8 -25 -10 -6 -10 -9 -1 -9 6 0 12 -10 13 -22 l0 -23 9 23 c8 19 17 22 65
22 l55 0 0 -55 c0 -54 0 -55 -29 -55 -16 0 -36 -3 -44 -6 -9 -3 -25 4 -36 15
-16 16 -21 17 -21 6 0 -9 -10 -15 -26 -15 -25 0 -25 2 -23 58 1 32 -1 64 -5
70 -4 7 -4 17 -1 22 10 16 45 12 52 -6z m177 0 c12 -5 16 -21 16 -75 0 -67 -1
-69 -25 -69 -24 0 -25 2 -25 68 0 79 4 88 34 76z m76 -19 c0 -10 10 -15 28
-15 20 0 32 -7 39 -22 l10 -23 7 21 c5 16 18 23 53 28 48 6 71 -3 58 -24 -4
-7 -19 -10 -34 -7 -24 5 -28 1 -56 -66 -26 -62 -35 -72 -58 -75 -31 -4 -32 -1
-13 37 13 25 13 32 -9 77 l-23 49 -1 -52 c-1 -50 -3 -53 -26 -53 -24 0 -25 2
-25 70 0 68 1 70 25 70 16 0 25 -6 25 -15z m-1870 -40 c364 -54 356 -50 359
-191 l1 -52 -102 -7 c-57 -4 -123 -11 -148 -15 -26 -5 -52 -4 -63 1 -29 16
-56 0 -88 -51 -20 -32 -35 -47 -47 -45 -16 3 -56 -17 -77 -39 -30 -31 -67
-113 -72 -158 -4 -38 -11 -56 -31 -74 -32 -28 -50 -30 -80 -8 -14 9 -33 13
-46 10 -30 -7 -82 -55 -91 -83 -9 -31 -18 -29 -33 7 -17 37 -25 38 -48 3 -39
-62 -175 -229 -195 -241 -29 -18 -32 -11 -16 36 12 34 50 85 139 185 9 11 22
32 28 48 7 16 16 29 20 29 5 0 13 14 19 30 6 19 6 30 0 30 -14 0 0 52 20 70
29 28 91 144 91 172 0 15 39 38 65 38 17 0 20 -35 5 -45 -17 -11 -11 -35 10
-35 11 0 54 18 97 39 43 21 94 42 112 45 67 12 111 27 111 37 0 6 -21 59 -46
117 -25 57 -48 120 -51 139 -6 33 -5 34 23 29 16 -3 76 -13 134 -21z m2065
-65 c0 -18 -33 -26 -47 -12 -6 6 -7 15 -3 22 10 16 50 8 50 -10z m-1338 -191
c141 -68 123 -279 -28 -317 -171 -43 -284 150 -168 283 50 56 124 69 196 34z
m1300 -20 c122 -76 94 -271 -45 -309 -172 -46 -292 160 -167 285 58 58 142 67
212 24z m-2607 -103 c0 -8 -7 -17 -16 -20 -15 -6 -205 -148 -232 -174 -8 -7
-29 -24 -47 -38 -19 -14 -46 -46 -60 -70 -14 -24 -54 -67 -88 -95 -34 -29 -64
-55 -67 -59 -3 -4 -15 -12 -27 -19 -45 -23 -26 31 38 109 68 83 81 106 105
177 22 66 32 74 46 35 7 -18 18 -32 24 -32 14 0 63 55 85 97 19 35 76 68 93
54 7 -6 33 1 71 19 69 34 75 35 75 16z m-920 -46 c0 -36 -46 -139 -75 -167
-18 -18 -36 -46 -40 -64 -10 -43 -51 -136 -65 -144 -23 -14 -19 3 14 66 18 35
39 82 46 104 17 55 100 215 111 215 5 0 9 -5 9 -10z m254 -12 c-5 -7 2 -9 22
-4 19 4 24 3 15 -3 -7 -5 -11 -14 -7 -20 4 -6 2 -9 -7 -6 -16 7 -61 -56 -105
-145 -33 -70 -82 -127 -82 -97 0 9 4 18 9 21 5 4 19 36 31 74 29 91 102 208
122 196 5 -3 5 -10 2 -16z m231 -18 c-32 -16 -63 -26 -68 -23 -9 6 31 27 83
43 49 16 44 9 -15 -20z m-85 -37 c0 -3 -12 -18 -28 -32 -26 -25 -62 -90 -62
-112 0 -20 -61 -139 -71 -139 -12 0 -3 53 24 140 11 36 20 68 19 72 -3 11 69
69 79 63 5 -4 9 -1 9 4 0 6 7 11 15 11 8 0 15 -3 15 -7z m520 -59 c0 -8 -4
-14 -10 -14 -5 0 -10 9 -10 21 0 11 5 17 10 14 6 -3 10 -13 10 -21z m-1196
-61 c-1 -32 -11 -96 -24 -143 -21 -84 -47 -225 -52 -288 -2 -23 -7 -32 -20
-32 -23 0 -24 45 -4 95 16 38 49 197 67 325 6 47 17 88 23 92 6 4 11 8 11 8 0
0 -1 -26 -1 -57z m270 -55 c9 -45 0 -46 -18 -3 -19 46 -19 46 -2 39 8 -3 17
-19 20 -36z m5101 12 c18 -8 18 -9 -5 -8 -14 0 -36 4 -50 8 -24 8 -24 8 5 8
17 0 39 -3 50 -8z m69 -19 c3 -4 -6 -6 -19 -3 -14 2 -25 6 -25 8 0 8 39 4 44
-5z m60 -18 c4 -4 20 -8 36 -9 39 -1 62 -12 55 -24 -10 -16 -36 -12 -90 14
-33 16 -43 25 -29 25 11 1 24 -2 28 -6z m-4854 -328 c0 -10 -11 -15 -35 -15
-56 0 -41 25 18 29 9 0 17 -6 17 -14z m1820 -175 c0 -5 -4 -10 -10 -10 -5 0
-10 5 -10 10 0 6 5 10 10 10 6 0 10 -4 10 -10z"/>
<path d="M4140 1384 c0 -8 5 -12 10 -9 6 4 8 11 5 16 -9 14 -15 11 -15 -7z"/>
<path d="M5186 1392 c-3 -6 -1 -14 5 -17 15 -10 25 3 12 16 -7 7 -13 7 -17 1z"/>
<path d="M3135 810 c3 -5 8 -10 11 -10 2 0 4 5 4 10 0 6 -5 10 -11 10 -5 0 -7
-4 -4 -10z"/>
<path d="M4088 1128 c-52 -30 -72 -72 -66 -137 8 -81 66 -131 154 -131 42 0
51 5 90 44 41 40 44 47 44 95 0 29 -7 65 -15 81 -34 67 -134 90 -207 48z m122
-43 c0 -8 -7 -15 -15 -15 -8 0 -15 -7 -15 -15 0 -8 7 -15 15 -15 8 0 15 -7 15
-15 0 -9 -7 -18 -15 -21 -10 -4 -15 -20 -15 -50 0 -37 -3 -44 -20 -44 -17 0
-20 7 -20 40 0 22 -6 50 -12 61 -10 17 -10 23 0 26 6 3 12 12 12 22 0 9 5 22
12 29 17 17 58 15 58 -3z"/>
<path d="M5348 1102 c-37 -35 -42 -45 -45 -93 -3 -42 0 -61 16 -87 82 -129
271 -73 271 82 0 44 -4 53 -44 92 -41 42 -46 44 -100 44 -52 0 -60 -3 -98 -38z
m171 -36 c7 -9 11 -41 9 -83 l-3 -68 -68 -3 c-91 -4 -99 3 -95 86 2 41 8 67
16 70 7 2 10 -2 6 -12 -3 -9 -1 -16 5 -16 6 0 11 9 11 20 0 18 7 20 54 20 34
0 58 -5 65 -14z"/>
<path d="M5496 1061 c-4 -7 -5 -15 -2 -18 9 -9 19 4 14 18 -4 11 -6 11 -12 0z"/>
<path d="M5423 1033 c-7 -2 -13 -9 -13 -14 0 -5 9 -4 19 3 15 9 23 9 35 -1 22
-19 20 -37 -6 -55 -12 -9 -17 -16 -11 -16 18 0 43 29 43 50 0 28 -37 46 -67
33z"/>
<path d="M5431 1006 c-9 -10 -8 -16 4 -26 19 -16 41 1 32 24 -8 20 -21 20 -36
2z"/>
<path d="M4744 1150 c-27 -11 -72 -65 -80 -96 -13 -50 3 -105 40 -142 29 -30
43 -36 88 -39 97 -7 162 58 155 155 -5 64 -29 94 -97 116 -54 18 -75 19 -106
6z m21 -70 c0 -22 -29 -18 -33 3 -3 14 1 18 15 15 10 -2 18 -10 18 -18z m3
-82 c-2 -41 -7 -54 -20 -56 -15 -3 -18 5 -18 52 0 50 2 56 21 56 18 0 20 -5
17 -52z m116 36 c3 -9 6 -33 6 -55 0 -32 -3 -39 -20 -39 -17 0 -20 7 -20 41 0
52 -24 48 -28 -5 -3 -29 -7 -36 -20 -34 -13 2 -18 16 -20 56 l-3 52 49 0 c36
0 52 -4 56 -16z"/>
</g>
</svg>
